<?xml version="1.0" standalone="no"?>
<!DOCTYPE svg PUBLIC "-//W3C//DTD SVG 20010904//EN"
 "http://www.w3.org/TR/2001/REC-SVG-20010904/DTD/svg10.dtd">
<svg version="1.0" xmlns="http://www.w3.org/2000/svg"
 width="400.000000pt" height="400.000000pt" viewBox="0 0 400.000000 400.000000"
 preserveAspectRatio="xMidYMid meet">
<metadata>
Created by potrace 1.11, written by Peter Selinger 2001-2013
</metadata>
<g transform="translate(0.000000,400.000000) scale(0.100000,-0.100000)"
fill="#000000" stroke="none">
<path d="M842 3660 c0 -14 2 -19 5 -12 2 6 2 18 0 25 -3 6 -5 1 -5 -13z"/>
<path d="M810 3650 c0 -5 5 -10 10 -10 6 0 10 5 10 10 0 6 -4 10 -10 10 -5 0
-10 -4 -10 -10z"/>
<path d="M763 3583 c-10 -70 -10 -367 3 -833 7 -284 8 -302 20 -380 9 -53 9
-52 15 55 6 96 6 90 5 -50 -1 -88 1 -140 4 -115 l7 45 2 -40 c4 -85 11 -144
20 -167 10 -24 5 118 -5 157 -3 11 -9 142 -14 290 -5 149 -12 344 -17 435 -8
161 -8 163 -14 75 l-5 -90 -2 98 c-1 63 2 96 8 92 6 -3 10 1 10 10 0 10 -5 13
-12 9 -8 -5 -9 6 -5 40 8 57 16 73 28 55 6 -9 9 -2 9 23 0 37 -14 59 -23 36
-3 -7 -6 -1 -6 14 -1 21 3 25 19 21 19 -5 20 -1 18 93 l-2 99 -6 -90 -6 -90
-2 82 c-1 45 -7 85 -12 88 -7 4 -10 -9 -8 -36 2 -23 -2 -44 -8 -46 -7 -2 -11
18 -11 57 0 33 4 60 8 60 4 0 7 16 6 35 -2 55 -12 41 -24 -32z m34 -735 c-3
-7 -5 -2 -5 12 0 14 2 19 5 13 2 -7 2 -19 0 -25z m0 -105 c-2 -16 -4 -3 -4 27
0 30 2 43 4 28 2 -16 2 -40 0 -55z m9 -191 c-11 -10 -15 4 -8 28 l7 25 3 -23
c2 -13 1 -26 -2 -30z"/>
<path d="M843 3430 c0 -36 2 -50 4 -32 2 17 2 47 0 65 -2 17 -4 3 -4 -33z"/>
<path d="M890 3324 c-6 -14 -10 -38 -10 -54 0 -49 -19 -43 -23 7 l-3 48 -2
-52 c-1 -29 1 -53 6 -53 4 0 5 -25 4 -55 -3 -35 0 -55 7 -55 6 0 11 -4 11 -10
0 -5 -6 -10 -14 -10 -11 0 -16 23 -20 93 -11 159 -13 165 -14 39 -2 -98 1
-127 13 -138 8 -9 15 -25 16 -37 0 -12 7 -65 14 -117 14 -94 14 -94 9 -20 -3
41 -7 95 -9 120 l-5 45 20 -33 c22 -35 25 -46 11 -38 -5 4 -7 -4 -3 -16 3 -12
7 -17 10 -10 3 9 8 8 19 -3 18 -19 43 -19 43 -1 0 7 9 25 20 39 11 14 20 31
20 39 -1 8 -4 7 -11 -4 -15 -26 -36 -2 -32 36 3 29 0 26 -14 -14 -9 -25 -22
19 -22 78 -1 30 -6 52 -12 52 -7 0 -9 23 -4 75 5 54 4 75 -4 75 -6 0 -16 -12
-21 -26z m27 -191 c-3 -10 -5 -2 -5 17 0 19 2 27 5 18 2 -10 2 -26 0 -35z"/>
<path d="M953 3220 c0 -36 2 -50 4 -32 2 17 2 47 0 65 -2 17 -4 3 -4 -33z"/>
<path d="M973 3205 c0 -33 2 -45 4 -27 2 18 2 45 0 60 -2 15 -4 0 -4 -33z"/>
<path d="M816 3060 c6 -286 21 -621 29 -628 6 -7 2 136 -16 493 -15 316 -17
337 -13 135z"/>
<path d="M927 3233 c-4 -3 -7 -11 -7 -17 0 -6 5 -5 12 2 6 6 9 14 7 17 -3 3
-9 2 -12 -2z"/>
<path d="M941 3104 c0 -11 3 -14 6 -6 3 7 2 16 -1 19 -3 4 -6 -2 -5 -13z"/>
<path d="M835 3023 c6 -64 15 -67 15 -5 0 29 -4 52 -10 52 -6 0 -8 -19 -5 -47z"/>
<path d="M848 2873 c2 -49 8 -113 13 -143 7 -49 7 -13 -4 213 -1 9 -4 17 -7
17 -4 0 -5 -39 -2 -87z"/>
<path d="M907 2914 c3 -27 7 -51 9 -53 8 -9 3 75 -5 88 -5 8 -7 -5 -4 -35z"/>
<path d="M883 2799 c-1 -16 2 -29 7 -29 12 0 13 47 3 53 -5 3 -9 -8 -10 -24z"/>
<path d="M893 2725 c0 -22 2 -30 4 -17 2 12 2 30 0 40 -3 9 -5 -1 -4 -23z"/>
<path d="M860 2562 c0 -62 3 -112 8 -112 7 0 4 211 -4 219 -2 2 -4 -46 -4
-107z"/>
<path d="M711 2417 c-7 -9 -10 -21 -6 -27 3 -5 1 -10 -4 -10 -6 0 -11 -14 -11
-32 0 -46 -10 -29 -12 22 -1 38 -3 41 -15 24 -7 -10 -13 -30 -13 -44 0 -18 -7
-30 -24 -38 -14 -6 -26 -23 -30 -44 -7 -28 -9 -30 -15 -13 -7 16 -9 15 -14
-11 -6 -31 10 -125 39 -223 16 -55 68 -121 96 -121 30 -1 60 -109 69 -250 10
-137 11 -184 25 -619 6 -210 9 -244 23 -248 9 -3 26 -19 37 -38 20 -30 20 -32
3 -28 -11 3 -19 14 -19 25 0 17 -2 18 -15 4 -21 -20 -19 -22 16 -35 17 -6 28
-15 24 -21 -8 -13 3 -50 15 -50 9 0 3 135 -6 155 -3 5 4 -1 15 -14 12 -13 21
-34 21 -47 0 -13 4 -24 9 -24 18 0 24 137 17 395 -7 316 -16 445 -28 445 -6 0
-7 -38 -3 -97 19 -281 25 -579 14 -643 -5 -26 -7 -15 -8 40 -6 289 -32 691
-52 795 -10 52 -9 65 5 92 12 24 14 38 6 58 -12 32 7 24 20 -9 8 -19 9 -18 9
8 2 60 23 8 30 -70 4 -53 10 -79 20 -82 9 -3 11 0 6 9 -13 20 -16 137 -5 144
5 3 10 -1 10 -9 0 -9 6 -13 14 -10 8 3 17 0 21 -6 8 -13 45 35 45 59 0 8 9 24
20 35 10 12 21 38 23 59 5 44 -9 50 -18 7 -4 -16 -10 -30 -15 -30 -4 0 -4 17
1 37 13 59 2 51 -16 -12 -25 -83 -27 -62 -4 40 10 49 19 100 18 114 0 15 -7
-3 -14 -39 -19 -95 -34 -148 -45 -155 -5 -3 -3 16 5 42 13 43 55 285 55 315 0
35 -11 -12 -29 -127 -22 -135 -37 -193 -53 -210 -5 -5 -4 3 2 19 13 34 63 327
57 333 -2 2 -13 -40 -23 -94 l-18 -98 -8 53 c-5 32 -4 67 2 85 9 28 9 26 5
-18 -3 -34 -2 -42 4 -25 13 40 21 107 12 91 -7 -11 -9 -11 -13 0 -3 8 -8 -2
-13 -21 -6 -31 -61 -97 -71 -87 -2 2 -9 59 -14 127 -6 69 -14 127 -17 130 -7
7 6 -171 18 -239 5 -29 5 -60 1 -68 -9 -15 -24 76 -41 242 l-9 90 4 -115 c3
-63 12 -152 21 -197 17 -92 10 -140 -13 -88 -11 25 -13 26 -14 9 0 -12 6 -37
14 -55 7 -19 16 -50 19 -69 3 -19 3 -29 0 -22 -4 10 -8 10 -19 2 -10 -9 -15
-6 -20 17 -4 15 -8 42 -8 60 0 17 -3 30 -7 27 -4 -2 -10 4 -12 13 -2 10 -3 5
-1 -12 3 -29 29 -154 39 -191 3 -11 -1 -5 -9 11 -8 17 -26 84 -40 150 -19 86
-25 103 -20 60 5 -56 35 -206 49 -250 4 -13 1 -11 -8 5 -27 46 -51 180 -50
283 1 53 -2 97 -6 97 -4 0 -7 -12 -6 -27 2 -17 0 -20 -3 -8 l-4 20 -9 -20 c-7
-17 -8 -17 -8 7 -1 17 -6 27 -13 25 -8 -1 -14 11 -16 31 -2 19 1 32 8 32 6 0
9 8 6 18 -2 9 -7 44 -10 77 -3 41 -2 50 3 30 5 -16 9 -47 10 -67 0 -21 5 -38
9 -38 5 0 5 28 0 62 -4 34 -7 67 -4 73 2 5 7 -12 10 -40 4 -27 12 -61 17 -75
7 -21 8 -19 4 13 -3 20 -8 53 -11 73 -5 26 -4 35 5 30 6 -4 11 -2 11 3 0 6 -4
11 -10 11 -5 0 -6 7 -3 17 4 10 2 14 -4 10 -6 -4 -13 -2 -15 4 -2 7 -8 6 -17
-4z m-14 -174 c-3 -10 -5 -2 -5 17 0 19 2 27 5 18 2 -10 2 -26 0 -35z m280
-230 c-3 -10 -5 -4 -5 12 0 17 2 24 5 18 2 -7 2 -21 0 -30z m-230 -5 c-3 -7
-5 -2 -5 12 0 14 2 19 5 13 2 -7 2 -19 0 -25z m20 -155 c-3 -10 -5 -2 -5 17 0
19 2 27 5 18 2 -10 2 -26 0 -35z m123 8 c0 -6 -4 -12 -8 -15 -5 -3 -9 1 -9 9
0 8 4 15 9 15 4 0 8 -4 8 -9z m-46 -243 c8 -34 17 -128 21 -208 4 -80 10 -167
12 -195 2 -27 6 -130 10 -229 4 -131 3 -177 -6 -172 -7 5 -11 52 -11 139 0 73
-5 193 -11 267 -5 74 -14 187 -19 250 -5 63 -13 135 -19 160 -8 41 -6 68 6 57
2 -3 10 -34 17 -69z m-47 0 c-3 -8 -6 -5 -6 6 -1 11 2 17 5 13 3 -3 4 -12 1
-19z m28 -149 c2 -46 10 -149 16 -229 15 -199 20 -452 8 -422 -5 13 -8 69 -8
125 1 56 -6 199 -15 317 -23 303 -24 324 -15 307 5 -8 11 -52 14 -98z m2 -531
c-3 -8 -6 -5 -6 6 -1 11 2 17 5 13 3 -3 4 -12 1 -19z m0 -80 c-3 -8 -6 -5 -6
6 -1 11 2 17 5 13 3 -3 4 -12 1 -19z"/>
<path d="M902 2370 c0 -19 2 -27 5 -17 2 9 2 25 0 35 -3 9 -5 1 -5 -18z"/>
<path d="M1080 2307 c0 -8 7 -17 15 -21 8 -3 15 -3 15 0 0 3 -7 12 -15 20 -13
13 -15 13 -15 1z"/>
<path d="M761 2300 c1 -8 5 -26 9 -40 l8 -25 1 25 c0 14 -4 32 -9 40 -9 13
-10 13 -9 0z"/>
<path d="M1031 2284 c0 -11 3 -14 6 -6 3 7 2 16 -1 19 -3 4 -6 -2 -5 -13z"/>
<path d="M1052 2280 c0 -14 2 -19 5 -12 2 6 2 18 0 25 -3 6 -5 1 -5 -13z"/>
<path d="M912 2250 c0 -14 2 -19 5 -12 2 6 2 18 0 25 -3 6 -5 1 -5 -13z"/>
<path d="M1091 2244 c0 -11 3 -14 6 -6 3 7 2 16 -1 19 -3 4 -6 -2 -5 -13z"/>
<path d="M1062 2213 c-1 -17 -5 -40 -8 -50 -5 -17 -5 -17 6 0 6 9 9 32 7 50
l-4 32 -1 -32z"/>
<path d="M1322 2198 c-16 -16 -15 -28 2 -28 19 0 27 13 17 28 -5 9 -10 9 -19
0z"/>
<path d="M756 2184 c-4 -10 -1 -14 6 -12 15 5 23 28 10 28 -5 0 -13 -7 -16
-16z"/>
<path d="M1082 2160 c0 -19 2 -27 5 -17 2 9 2 25 0 35 -3 9 -5 1 -5 -18z"/>
<path d="M780 2135 c0 -14 4 -25 9 -25 4 0 6 11 3 25 -2 14 -6 25 -8 25 -2 0
-4 -11 -4 -25z"/>
<path d="M1335 2144 c9 -9 19 -13 23 -10 3 4 0 11 -8 16 -24 15 -33 11 -15 -6z"/>
<path d="M1051 2124 c0 -11 3 -14 6 -6 3 7 2 16 -1 19 -3 4 -6 -2 -5 -13z"/>
<path d="M1252 2089 c-12 -29 -20 -55 -17 -57 6 -6 46 89 43 100 -2 5 -13 -14
-26 -43z"/>
<path d="M1316 2115 c-9 -26 -7 -32 5 -12 6 10 9 21 6 23 -2 3 -7 -2 -11 -11z"/>
<path d="M1280 2095 c-5 -14 -12 -38 -15 -53 l-6 -27 14 25 c16 28 30 80 22
80 -3 0 -10 -11 -15 -25z"/>
<path d="M1071 2094 c0 -11 3 -14 6 -6 3 7 2 16 -1 19 -3 4 -6 -2 -5 -13z"/>
<path d="M1337 2103 c-4 -3 -7 -13 -7 -22 1 -13 3 -13 11 2 11 19 8 33 -4 20z"/>
<path d="M792 2070 c0 -19 2 -27 5 -17 2 9 2 25 0 35 -3 9 -5 1 -5 -18z"/>
<path d="M1222 2075 c-17 -37 -14 -45 4 -12 9 16 14 31 11 33 -2 2 -9 -7 -15
-21z"/>
<path d="M1193 2075 c-3 -9 -3 -18 -1 -21 3 -3 8 4 11 16 6 23 -1 27 -10 5z"/>
<path d="M1355 2080 c-3 -5 -1 -10 4 -10 6 0 11 5 11 10 0 6 -2 10 -4 10 -3 0
-8 -4 -11 -10z"/>
<path d="M1271 1994 c-38 -84 -107 -184 -154 -225 -21 -18 -27 -28 -19 -33 8
-4 11 -3 10 5 -2 6 3 14 11 17 8 3 11 0 7 -7 -4 -6 -2 -11 5 -11 10 0 10 -3 2
-11 -15 -15 -56 -1 -49 17 3 7 1 16 -4 19 -6 4 -6 14 1 27 7 12 7 18 1 14 -6
-3 -13 0 -15 6 -3 7 -6 -7 -6 -31 -1 -29 5 -51 17 -64 9 -11 11 -17 5 -13 -7
4 -13 2 -13 -3 0 -6 19 -11 43 -11 34 0 49 6 68 26 l24 26 -42 -21 c-57 -29
-67 -26 -18 5 30 19 34 23 15 19 l-25 -6 21 18 c24 21 76 89 93 121 19 37 6
25 -24 -20 -32 -50 -75 -98 -87 -98 -5 0 14 28 41 63 49 62 135 221 129 238
-2 5 -18 -25 -37 -67z"/>
<path d="M1062 2040 c0 -14 2 -19 5 -12 2 6 2 18 0 25 -3 6 -5 1 -5 -13z"/>
<path d="M1162 1993 c-6 -20 -7 -32 -2 -27 10 10 25 64 18 64 -3 0 -10 -16
-16 -37z"/>
<path d="M1200 1969 c-24 -50 -50 -81 -37 -43 7 18 7 18 -8 0 -8 -11 -15 -25
-15 -30 0 -6 5 -4 11 4 8 11 9 6 5 -23 -3 -22 -1 -35 4 -32 25 15 111 165 96
165 -2 0 -21 -30 -42 -67 -21 -37 -39 -62 -41 -56 -2 6 7 29 20 50 23 37 42
83 34 83 -2 0 -14 -23 -27 -51z"/>
<path d="M1321 1953 c-10 -26 -10 -27 4 -9 8 11 15 23 15 28 0 15 -7 8 -19
-19z"/>
<path d="M1241 1838 c-13 -21 -13 -22 2 -9 10 8 17 9 17 3 0 -11 -19 -27 -32
-27 -3 0 -10 -4 -15 -9 -5 -5 -3 -6 5 -2 17 10 15 -4 -5 -28 -16 -19 -16 -19
7 1 26 23 71 91 52 79 -6 -3 -12 -2 -14 4 -2 6 -9 0 -17 -12z"/>
<path d="M1090 1785 c-7 -8 -8 -15 -2 -15 5 0 15 7 22 15 7 8 8 15 2 15 -5 0
-15 -7 -22 -15z"/>
<path d="M893 1732 c2 -18 0 -35 -4 -37 -4 -3 -6 -13 -4 -23 2 -9 7 -38 10
-65 4 -26 10 -45 15 -42 6 3 7 25 4 48 -4 23 -6 56 -5 73 1 17 -3 42 -9 55
-10 22 -10 21 -7 -9z"/>
<path d="M991 1664 c0 -11 3 -14 6 -6 3 7 2 16 -1 19 -3 4 -6 -2 -5 -13z"/>
<path d="M938 1618 c-6 -22 14 -261 22 -248 4 6 5 39 3 73 -2 34 -6 88 -8 120
-4 60 -9 78 -17 55z"/>
<path d="M1886 1585 c-3 -8 -2 -15 3 -15 5 0 14 7 21 15 10 12 10 15 -3 15 -8
0 -17 -7 -21 -15z"/>
<path d="M1002 1470 c0 -14 2 -19 5 -12 2 6 2 18 0 25 -3 6 -5 1 -5 -13z"/>
<path d="M2570 1479 c0 -5 5 -7 10 -4 6 3 10 8 10 11 0 2 -4 4 -10 4 -5 0 -10
-5 -10 -11z"/>
<path d="M3830 1469 c0 -5 5 -7 10 -4 6 3 10 8 10 11 0 2 -4 4 -10 4 -5 0 -10
-5 -10 -11z"/>
<path d="M3800 1450 c-9 -6 -10 -10 -3 -10 6 0 15 5 18 10 8 12 4 12 -15 0z"/>
<path d="M1006 1421 c-4 -7 -5 -15 -2 -18 9 -9 19 4 14 18 -4 11 -6 11 -12 0z"/>
<path d="M1062 1400 c0 -14 2 -19 5 -12 2 6 2 18 0 25 -3 6 -5 1 -5 -13z"/>
<path d="M2780 1390 c-9 -6 -10 -10 -3 -10 6 0 15 5 18 10 8 12 4 12 -15 0z"/>
<path d="M955 1303 c4 -156 5 -163 20 -163 8 0 12 6 10 13 -3 6 -6 50 -8 96
-1 47 -7 86 -12 88 -6 2 -10 -13 -10 -34z"/>
<path d="M1072 1305 c0 -16 2 -22 5 -12 2 9 2 23 0 30 -3 6 -5 -1 -5 -18z"/>
<path d="M1012 1280 c0 -19 2 -27 5 -17 2 9 2 25 0 35 -3 9 -5 1 -5 -18z"/>
<path d="M1618 1303 c7 -3 16 -2 19 1 4 3 -2 6 -13 5 -11 0 -14 -3 -6 -6z"/>
<path d="M1578 1283 c7 -3 16 -2 19 1 4 3 -2 6 -13 5 -11 0 -14 -3 -6 -6z"/>
<path d="M1062 1250 c0 -14 4 -36 8 -50 6 -20 8 -21 8 -5 0 11 -4 34 -8 50 -7
27 -8 27 -8 5z"/>
<path d="M3978 1263 c7 -3 16 -2 19 1 4 3 -2 6 -13 5 -11 0 -14 -3 -6 -6z"/>
<path d="M1011 1214 c0 -11 3 -14 6 -6 3 7 2 16 -1 19 -3 4 -6 -2 -5 -13z"/>
<path d="M498 1193 c7 -3 16 -2 19 1 4 3 -2 6 -13 5 -11 0 -14 -3 -6 -6z"/>
<path d="M538 1193 c7 -3 16 -2 19 1 4 3 -2 6 -13 5 -11 0 -14 -3 -6 -6z"/>
<path d="M3630 1190 c8 -5 20 -10 25 -10 6 0 3 5 -5 10 -8 5 -19 10 -25 10 -5
0 -3 -5 5 -10z"/>
<path d="M1012 1165 c0 -16 2 -22 5 -12 2 9 2 23 0 30 -3 6 -5 -1 -5 -18z"/>
<path d="M1071 1144 c0 -11 3 -14 6 -6 3 7 2 16 -1 19 -3 4 -6 -2 -5 -13z"/>
<path d="M3420 1133 c0 -7 -7 -13 -15 -13 -19 0 -20 -26 -2 -37 26 -15 26 -40
1 -64 -13 -12 -24 -18 -24 -12 0 6 7 13 15 17 22 8 18 25 -7 35 -16 6 -25 4
-31 -6 -5 -8 -16 -11 -28 -8 -13 4 -19 2 -19 -8 0 -16 26 -41 44 -42 23 -2 44
-17 49 -36 4 -15 2 -19 -9 -15 -8 3 -14 1 -14 -4 0 -13 26 -13 51 0 15 8 19 7
19 -5 0 -8 -9 -15 -20 -15 -11 0 -20 -5 -20 -11 0 -8 -5 -8 -15 1 -10 9 -15 9
-15 1 0 -6 -4 -11 -8 -11 -5 0 -8 18 -8 40 1 22 -2 40 -6 40 -5 0 -8 -7 -8
-15 0 -9 -12 -28 -27 -42 -28 -25 -28 -25 -4 -18 20 6 23 4 18 -9 -4 -9 -1
-16 6 -16 8 0 7 -4 -3 -10 -12 -7 -10 -9 7 -7 12 0 20 4 17 8 -2 4 0 10 5 13
15 9 22 -25 9 -41 -10 -12 -9 -14 7 -12 11 2 26 0 33 -4 6 -5 12 -4 12 2 0 6
6 8 14 5 9 -3 17 6 24 26 11 31 9 46 -11 88 -8 18 -8 28 2 44 11 18 11 20 -3
15 -32 -12 2 30 34 43 20 8 29 18 26 27 -4 8 -6 20 -6 26 0 7 -7 -2 -16 -20
-15 -31 -58 -56 -47 -27 3 8 9 14 14 14 5 0 9 10 8 23 0 20 -1 20 -8 3 -6 -16
-9 -14 -24 15 -9 19 -17 28 -17 22z m-50 -113 c0 -12 -8 -12 -35 0 -18 8 -17
9 8 9 15 1 27 -3 27 -9z"/>
<path d="M966 1010 c1 -61 4 -114 8 -117 8 -8 10 36 7 160 0 37 -4 67 -8 67
-5 0 -7 -50 -7 -110z"/>
<path d="M3270 1095 c-8 -9 -6 -14 7 -19 10 -4 19 -2 21 3 5 16 22 13 22 -4 0
-19 8 -19 28 2 16 16 16 16 0 10 -10 -3 -20 -2 -23 2 -9 15 -44 19 -55 6z"/>
<path d="M2319 1078 c-6 -62 -5 -157 2 -178 6 -22 8 -20 9 15 1 22 1 45 -1 50
-7 26 3 91 17 101 13 10 13 12 -2 18 -22 8 -24 8 -25 -6z"/>
<path d="M3265 1050 c3 -5 11 -10 16 -10 6 0 7 5 4 10 -3 6 -11 10 -16 10 -6
0 -7 -4 -4 -10z"/>
<path d="M3200 999 c0 -5 5 -7 10 -4 6 3 10 8 10 11 0 2 -4 4 -10 4 -5 0 -10
-5 -10 -11z"/>
<path d="M3491 988 c-5 -13 -5 -24 0 -26 5 -2 4 -13 -2 -24 -17 -32 -2 -33 25
-2 27 31 32 44 16 44 -5 0 -10 -4 -10 -10 0 -5 -5 -10 -11 -10 -7 0 -9 10 -5
25 8 31 -2 33 -13 3z"/>
<path d="M3060 989 c0 -5 5 -7 10 -4 6 3 10 8 10 11 0 2 -4 4 -10 4 -5 0 -10
-5 -10 -11z"/>
<path d="M3055 961 c-3 -5 -1 -12 5 -16 5 -3 10 1 10 9 0 18 -6 21 -15 7z"/>
<path d="M3261 956 c-9 -10 -8 -15 3 -19 10 -4 14 0 13 14 -2 23 -1 23 -16 5z"/>
<path d="M3140 924 c0 -8 5 -12 10 -9 6 3 10 10 10 16 0 5 -4 9 -10 9 -5 0
-10 -7 -10 -16z"/>
<path d="M3535 930 c-3 -5 -2 -10 4 -10 5 0 13 5 16 10 3 6 2 10 -4 10 -5 0
-13 -4 -16 -10z"/>
<path d="M3741 924 c0 -11 3 -14 6 -6 3 7 2 16 -1 19 -3 4 -6 -2 -5 -13z"/>
<path d="M3090 920 c0 -5 5 -10 11 -10 5 0 7 5 4 10 -3 6 -8 10 -11 10 -2 0
-4 -4 -4 -10z"/>
<path d="M3243 911 c-11 -18 -8 -31 8 -31 11 0 18 26 10 38 -4 7 -11 5 -18 -7z"/>
<path d="M3626 917 c3 -8 -4 -13 -17 -14 -30 -3 -31 -5 -36 -75 -4 -56 -16
-90 -26 -77 -11 12 -16 59 -7 59 12 0 13 47 1 54 -5 3 -14 -1 -21 -9 -7 -8
-19 -15 -26 -15 -8 0 -14 -7 -14 -15 0 -8 -6 -16 -12 -16 -28 -3 -34 -5 -55
-19 -22 -14 -34 -38 -13 -25 6 3 10 2 10 -4 0 -5 -6 -11 -12 -14 -7 -2 -10 -7
-7 -11 9 -10 51 35 45 50 -8 22 8 17 22 -7 8 -12 9 -18 3 -14 -6 3 -11 2 -11
-4 0 -5 4 -12 10 -16 5 -3 6 -13 3 -22 -5 -13 -1 -15 25 -11 24 3 32 0 36 -15
4 -17 11 -19 45 -13 37 6 39 5 36 -17 -4 -17 2 -25 25 -35 31 -14 45 -60 15
-48 -9 3 -15 0 -15 -8 0 -8 -6 -17 -12 -19 -10 -4 -10 -6 -1 -6 6 -1 14 3 18
9 3 5 12 7 20 3 8 -3 15 0 15 6 0 6 7 8 15 5 9 -4 15 0 15 9 0 8 -5 17 -12 19
-9 3 -9 6 0 12 7 4 12 2 12 -4 0 -6 5 -8 10 -5 18 11 -9 45 -36 45 -16 0 -23
-4 -18 -11 4 -7 1 -10 -6 -7 -20 6 -24 28 -6 28 19 0 22 36 4 43 -10 4 -10 7
0 18 17 18 15 29 -5 30 -14 0 -15 2 -3 6 8 3 24 13 34 22 18 15 19 15 13 -7
-3 -15 -1 -22 6 -19 6 2 14 17 18 33 3 16 11 39 18 49 10 16 11 16 7 3 -7 -22
-2 -22 27 -4 14 9 29 11 42 6 17 -7 17 -9 3 -9 -10 -1 -18 -8 -18 -17 0 -20
-27 -47 -40 -39 -5 3 -10 -1 -10 -10 0 -8 -7 -18 -16 -22 -8 -3 -13 -12 -10
-19 3 -8 1 -14 -5 -14 -6 0 -7 -4 -4 -10 3 -5 1 -10 -4 -10 -6 0 -11 9 -11 20
0 11 -4 20 -10 20 -20 0 -9 -40 17 -65 34 -30 38 -31 56 -4 11 15 17 17 22 8
5 -7 0 -18 -12 -28 -24 -20 -53 -66 -53 -83 0 -10 2 -10 8 -1 4 6 14 13 22 15
8 2 20 9 26 17 7 10 17 11 30 6 10 -5 27 -9 36 -10 14 -2 15 1 7 17 -6 11 -13
17 -16 14 -3 -3 -14 -1 -25 5 -15 8 -17 13 -8 25 7 7 9 21 6 30 -4 11 -2 15 8
11 8 -3 17 1 20 10 5 11 2 14 -10 9 -10 -4 -14 -2 -11 6 2 7 13 12 24 11 12
-1 25 8 35 25 16 26 15 29 0 40 -9 7 -12 10 -6 8 13 -6 47 28 37 37 -3 4 -17
7 -29 7 -13 0 -26 5 -29 10 -4 6 -11 7 -17 4 -7 -4 -8 2 -3 17 7 22 7 23 -11
9 -10 -8 -22 -19 -26 -25 -13 -18 -21 5 -10 30 15 32 5 32 -20 0 -11 -14 -27
-25 -37 -25 -9 0 -23 -6 -30 -12 -10 -11 -11 -3 -6 37 5 44 4 48 -8 33 -17
-22 -27 -23 -27 -3 0 8 -4 15 -10 15 -5 0 -7 -6 -4 -13z m39 -97 c3 -5 1 -10
-4 -10 -6 0 -11 5 -11 10 0 6 2 10 4 10 3 0 8 -4 11 -10z m165 -20 c0 -5 -5
-10 -11 -10 -5 0 -7 5 -4 10 3 6 8 10 11 10 2 0 4 -4 4 -10z m-190 -10 c0 -5
-2 -10 -4 -10 -3 0 -8 5 -11 10 -3 6 -1 10 4 10 6 0 11 -4 11 -10z m-115 -40
c-3 -5 1 -10 9 -10 9 0 16 -4 16 -10 0 -5 -4 -10 -9 -10 -13 0 -32 26 -24 33
10 10 15 8 8 -3z m40 -40 c3 -6 -4 -10 -17 -10 -18 0 -20 2 -8 10 19 12 18 12
25 0z m168 -25 c-3 -9 -8 -14 -10 -11 -3 3 -2 9 2 15 9 16 15 13 8 -4z"/>
<path d="M2625 909 c-4 -6 -5 -12 -2 -15 2 -3 7 2 10 11 7 17 1 20 -8 4z"/>
<path d="M2748 913 c7 -3 16 -2 19 1 4 3 -2 6 -13 5 -11 0 -14 -3 -6 -6z"/>
<path d="M3696 911 c-4 -7 -5 -15 -2 -18 9 -9 19 4 14 18 -4 11 -6 11 -12 0z"/>
<path d="M3028 905 c-2 -3 -3 -30 -2 -60 1 -30 -2 -55 -7 -55 -5 0 -9 -6 -9
-14 0 -9 7 -12 19 -9 17 4 19 13 17 63 -1 33 2 58 7 57 5 -1 11 4 13 11 1 7 0
8 -3 2 -3 -8 -9 -8 -17 -1 -7 6 -15 9 -18 6z"/>
<path d="M3520 901 c0 -7 -4 -9 -10 -6 -5 3 -10 1 -10 -4 0 -6 4 -11 9 -11 13
0 25 20 17 27 -3 4 -6 1 -6 -6z"/>
<path d="M587 894 c-7 -8 13 -54 25 -54 9 0 10 7 2 38 -6 22 -15 27 -27 16z"/>
<path d="M3139 878 c-10 -19 -10 -19 15 -3 25 17 26 17 26 -6 0 -18 3 -20 12
-11 9 9 9 15 0 24 -19 19 -41 18 -53 -4z"/>
<path d="M970 796 c0 -47 0 -89 -1 -93 0 -4 4 -9 9 -11 12 -4 13 176 1 184 -5
3 -9 -32 -9 -80z"/>
<path d="M3081 864 c-1 -12 -8 -25 -17 -28 -8 -3 -12 -10 -9 -16 4 -6 16 -3
31 7 14 9 21 19 16 22 -5 3 -12 13 -15 21 -4 10 -6 8 -6 -6z"/>
<path d="M3267 873 c-4 -3 -7 -15 -7 -25 0 -13 -8 -18 -31 -18 -17 0 -28 -4
-24 -10 3 -5 -1 -10 -9 -10 -9 0 -16 -4 -16 -9 0 -4 14 -7 31 -5 24 3 30 0 27
-14 -1 -9 1 -22 5 -29 8 -13 -30 -39 -41 -29 -3 3 0 6 6 6 7 0 12 5 12 11 0
14 -26 39 -40 39 -8 0 -10 9 -6 24 5 20 2 24 -19 24 -33 0 -39 -23 -9 -37 13
-6 24 -15 24 -21 0 -5 7 -10 16 -10 9 0 14 -6 11 -12 -2 -7 -13 -13 -25 -13
-12 0 -21 -4 -19 -10 1 -5 6 -9 10 -7 5 1 6 -2 2 -8 -3 -5 -1 -10 4 -10 6 0
11 4 11 10 0 5 7 7 15 4 8 -4 13 -10 10 -14 -3 -5 -1 -11 5 -15 5 -3 10 -14
10 -24 0 -10 9 -21 20 -24 14 -4 20 0 20 12 0 10 3 21 6 24 10 9 65 -33 59
-44 -4 -5 -2 -9 4 -9 5 0 13 9 16 20 4 11 11 17 17 14 6 -4 8 -2 4 4 -3 5 0
12 6 15 7 2 10 8 5 12 -4 5 -13 0 -21 -10 -8 -12 -15 -14 -20 -7 -4 6 -13 9
-20 6 -8 -3 -17 -1 -21 5 -4 7 4 11 19 11 19 0 24 4 19 16 -5 14 -3 15 15 5
11 -6 28 -11 36 -11 14 0 14 2 -1 19 -9 11 -23 17 -32 14 -12 -3 -11 0 3 11
11 9 14 16 8 16 -7 0 -12 7 -12 16 0 8 4 13 9 10 5 -3 11 1 14 9 5 11 1 12
-18 5 -20 -7 -25 -6 -25 5 0 8 5 15 10 15 6 0 10 7 10 15 0 11 -10 14 -40 11
-42 -3 -48 2 -28 22 7 7 8 12 2 12 -6 0 -14 -3 -17 -7z m23 -42 c0 -5 -7 -17
-17 -26 -9 -9 -12 -20 -7 -23 13 -10 17 -62 4 -62 -9 0 -15 21 -11 43 3 18
-21 48 -35 43 -9 -3 -12 -2 -9 5 4 6 14 8 22 5 8 -3 21 1 29 9 18 17 24 19 24
6z m-41 -158 c-1 -22 -2 -23 -6 -8 -3 11 -10 23 -17 27 -7 5 -5 8 7 8 12 0 17
-7 16 -27z"/>
<path d="M695 860 c-3 -5 -1 -10 4 -10 6 0 11 5 11 10 0 6 -2 10 -4 10 -3 0
-8 -4 -11 -10z"/>
<path d="M762 848 c2 -12 8 -23 13 -25 16 -5 13 36 -3 42 -9 3 -12 -2 -10 -17z"/>
<path d="M1022 796 c2 -43 6 -80 10 -82 8 -5 1 147 -7 155 -4 3 -5 -30 -3 -73z"/>
<path d="M2311 843 c1 -10 1 -69 0 -131 -1 -109 -2 -113 -21 -107 -12 4 -20 2
-20 -5 0 -6 -4 -9 -9 -6 -5 3 -21 -6 -35 -19 -23 -21 -24 -25 -9 -25 14 0 15
-2 4 -9 -9 -6 -10 -11 -2 -15 6 -4 16 -4 23 0 7 5 8 3 4 -5 -5 -7 -15 -10 -23
-7 -8 3 -20 3 -26 -1 -7 -4 -16 -8 -21 -8 -5 0 -11 -7 -13 -15 -3 -9 -1 -11 4
-5 10 12 43 16 43 5 0 -4 7 -11 16 -14 8 -3 12 -2 9 3 -3 5 4 12 15 16 24 8
25 23 4 53 -18 26 -18 27 16 37 25 8 25 8 6 -14 -16 -17 -17 -21 -4 -21 12 0
15 -9 14 -30 -1 -16 1 -30 6 -30 4 0 8 5 8 10 0 6 5 10 10 10 11 0 14 -33 3
-43 -3 -4 -13 -2 -20 5 -10 8 -17 8 -21 1 -4 -5 -19 -13 -34 -17 -22 -5 -27
-11 -24 -29 3 -12 5 -29 6 -37 1 -8 5 -4 9 10 4 14 13 24 19 22 7 -1 12 2 12
7 0 17 32 21 53 6 30 -21 40 -19 33 9 -7 30 -19 247 -19 344 1 39 -4 72 -9 72
-5 0 -8 -8 -7 -17z m3 -309 c3 -8 2 -12 -4 -9 -6 3 -10 10 -10 16 0 14 7 11
14 -7z"/>
<path d="M2590 845 c0 -8 7 -15 15 -15 8 0 15 7 15 15 0 8 -7 15 -15 15 -8 0
-15 -7 -15 -15z"/>
<path d="M505 840 c3 -5 12 -7 20 -3 21 7 19 13 -6 13 -11 0 -18 -4 -14 -10z"/>
<path d="M562 835 c-7 -8 -9 -15 -4 -15 6 0 12 -9 15 -20 4 -14 10 -18 23 -13
12 4 15 3 10 -5 -4 -7 -16 -12 -26 -12 -11 0 -25 -13 -34 -32 -20 -39 -20 -54
-1 -34 8 8 15 21 15 30 0 19 22 34 28 18 2 -7 8 -12 13 -12 4 0 5 8 2 18 -6
15 -5 15 10 3 14 -11 20 -9 46 15 17 16 27 33 23 42 -4 12 -7 12 -19 -4 -12
-16 -13 -16 -13 -1 0 13 -8 17 -32 16 -29 0 -30 -1 -12 -9 12 -4 24 -18 27
-30 5 -20 4 -21 -12 -6 -10 9 -23 16 -29 16 -12 0 -16 13 -13 38 2 15 -1 15
-17 -3z"/>
<path d="M2721 810 c-6 -18 -6 -28 -1 -25 6 4 10 12 10 20 0 7 5 15 12 17 9 3
9 6 1 11 -7 4 -15 -5 -22 -23z"/>
<path d="M0 821 c0 -6 5 -11 10 -11 6 0 10 -10 10 -22 0 -17 -3 -19 -9 -10 -5
9 -9 -9 -10 -46 -1 -46 3 -61 14 -66 9 -3 18 1 21 9 4 8 10 12 16 9 13 -8 -11
-35 -30 -32 -8 2 -17 -2 -19 -9 -3 -7 5 -10 22 -9 14 2 28 -1 31 -5 3 -5 -9
-9 -27 -9 -26 0 -29 -2 -20 -14 9 -11 9 -15 -1 -19 -10 -4 -10 -6 -1 -6 7 -1
22 8 33 19 12 12 26 18 32 14 7 -5 8 -3 3 6 -6 9 -4 12 7 8 11 -5 14 0 10 18
-2 13 0 24 7 24 5 0 8 7 5 15 -4 8 -10 15 -15 15 -4 0 -6 -6 -3 -13 2 -7 -3
-21 -12 -32 -14 -18 -15 -18 -10 -2 3 10 1 27 -5 38 -7 15 -7 24 1 34 7 9 7
14 1 17 -7 2 -5 14 4 32 13 25 13 27 -1 22 -9 -3 -18 -6 -20 -6 -2 0 -4 -7 -4
-16 0 -8 -7 -22 -15 -30 -20 -21 -19 -11 5 38 21 43 26 64 11 39 -8 -12 -12
-12 -25 -2 -11 9 -16 10 -16 2z m25 -111 c3 -5 1 -10 -4 -10 -6 0 -11 5 -11
10 0 6 2 10 4 10 3 0 8 -4 11 -10z"/>
<path d="M260 820 c-9 -6 -10 -10 -3 -10 6 0 15 5 18 10 8 12 4 12 -15 0z"/>
<path d="M2560 820 c0 -5 5 -10 11 -10 5 0 7 5 4 10 -3 6 -8 10 -11 10 -2 0
-4 -4 -4 -10z"/>
<path d="M522 808 c2 -6 10 -14 16 -16 7 -2 10 2 6 12 -7 18 -28 22 -22 4z"/>
<path d="M701 797 c-13 -20 -13 -21 2 -8 14 11 17 11 17 1 0 -8 3 -11 6 -7 3
3 2 12 -3 21 -7 13 -11 12 -22 -7z"/>
<path d="M1071 804 c0 -11 3 -14 6 -6 3 7 2 16 -1 19 -3 4 -6 -2 -5 -13z"/>
<path d="M2669 802 c-16 -19 -15 -42 2 -42 6 0 7 4 4 10 -3 5 -1 19 5 30 13
25 9 26 -11 2z"/>
<path d="M741 788 c0 -13 3 -17 6 -10 7 18 21 14 28 -9 5 -14 10 -18 17 -11
17 17 -1 52 -28 52 -18 0 -24 -5 -23 -22z"/>
<path d="M265 790 c4 -6 11 -8 16 -5 14 9 11 15 -7 15 -8 0 -12 -5 -9 -10z"/>
<path d="M480 790 c0 -5 5 -10 10 -10 6 0 10 5 10 10 0 6 -4 10 -10 10 -5 0
-10 -4 -10 -10z"/>
<path d="M2354 786 c-4 -10 -1 -24 8 -32 13 -14 17 -13 33 3 18 17 18 18 -1
22 -10 2 -22 8 -26 14 -4 8 -9 5 -14 -7z"/>
<path d="M3092 785 c2 -14 -2 -20 -15 -18 -13 1 -17 -4 -12 -14 5 -13 3 -14
-10 -3 -13 11 -18 11 -29 -1 -16 -17 -31 -73 -17 -65 14 9 20 -6 10 -29 -6
-17 -8 -17 -8 -2 -1 16 -11 21 -38 18 -7 -1 -13 3 -13 9 0 16 -17 12 -24 -6
-4 -10 -2 -13 6 -8 7 5 9 2 6 -8 -5 -11 0 -14 19 -12 24 2 47 -14 70 -52 6
-10 16 -18 21 -17 6 1 9 -10 7 -25 -4 -38 5 -47 21 -23 12 16 12 25 4 42 -7
11 -8 24 -4 27 4 4 9 2 11 -4 2 -7 13 -10 23 -7 16 4 20 0 20 -22 0 -21 4 -25
18 -21 12 4 21 -1 28 -16 6 -13 9 -17 7 -10 -4 18 19 52 35 52 8 0 12 6 9 14
-3 7 -1 18 5 24 15 15 -18 28 -35 14 -6 -5 -20 -11 -29 -13 -12 -3 -15 -8 -9
-18 7 -11 13 -9 30 8 26 26 27 26 27 2 0 -11 -3 -18 -7 -16 -3 3 -14 -2 -25
-9 -16 -12 -21 -11 -36 6 -13 16 -14 23 -5 33 7 7 15 11 18 9 4 -2 12 3 19 11
11 13 10 15 -1 10 -9 -3 -24 13 -42 46 -27 49 -28 75 -1 65 8 -3 11 0 7 10 -3
9 -13 14 -24 11 -11 -3 -23 2 -29 11 -9 15 -10 15 -8 -3z"/>
<path d="M153 783 c-7 -3 -13 -9 -13 -15 0 -7 4 -7 13 1 10 8 17 7 25 -1 8 -8
12 -9 12 -1 0 13 -20 22 -37 16z"/>
<path d="M1511 780 c-8 -4 -10 -13 -7 -19 4 -6 -1 -14 -11 -18 -10 -4 -25 -14
-33 -23 -8 -8 -12 -11 -8 -6 9 11 -19 66 -33 66 -18 0 -49 -20 -49 -32 0 -7 5
-6 15 2 9 7 19 10 23 6 4 -4 -1 -12 -10 -17 -11 -6 -15 -16 -11 -26 4 -11 3
-14 -5 -9 -7 4 -12 12 -12 17 0 5 -9 19 -20 31 -16 18 -20 19 -20 5 0 -8 5
-19 10 -22 13 -8 13 -25 1 -25 -5 0 -16 7 -24 15 -8 8 -18 11 -22 7 -4 -4 -4
4 0 16 6 22 5 23 -17 17 -37 -11 -45 -25 -25 -39 9 -7 17 -19 17 -25 0 -18 42
-71 52 -65 5 3 7 0 6 -8 -2 -7 3 -12 11 -10 12 3 12 0 1 -12 -26 -33 9 -15 39
19 26 30 34 34 50 25 15 -8 20 -6 23 6 2 10 13 0 31 -27 17 -28 27 -37 27 -25
0 14 3 16 13 7 10 -8 17 -7 25 1 9 9 16 7 32 -7 16 -14 22 -15 35 -5 16 13 16
50 0 63 -6 5 2 6 17 3 22 -5 26 -3 22 9 -4 8 -1 15 5 15 6 0 8 7 5 15 -4 8
-15 15 -26 15 -11 0 -16 4 -12 11 4 8 -1 9 -17 4 -18 -5 -20 -4 -9 4 8 5 12
13 9 16 -11 10 -36 -6 -46 -28 -9 -20 -10 -19 -17 15 -8 42 -16 51 -35 38z
m-231 -40 c0 -5 -2 -10 -4 -10 -3 0 -8 5 -11 10 -3 6 -1 10 4 10 6 0 11 -4 11
-10z m153 -10 c-3 -11 -7 -20 -9 -20 -2 0 -4 9 -4 20 0 11 4 20 9 20 5 0 7 -9
4 -20z m-128 -20 c3 -5 1 -10 -4 -10 -6 0 -11 5 -11 10 0 6 2 10 4 10 3 0 8
-4 11 -10z m235 -76 c0 -2 -7 -4 -15 -4 -8 0 -15 4 -15 10 0 5 7 7 15 4 8 -4
15 -8 15 -10z m60 12 c0 -3 -4 -8 -10 -11 -5 -3 -10 -1 -10 4 0 6 5 11 10 11
6 0 10 -2 10 -4z"/>
<path d="M1851 764 c0 -11 3 -14 6 -6 3 7 2 16 -1 19 -3 4 -6 -2 -5 -13z"/>
<path d="M1872 765 c-2 -26 13 -49 26 -41 6 3 13 2 17 -3 3 -6 -3 -15 -14 -20
-26 -14 -31 -14 -25 3 3 8 1 17 -5 21 -6 3 -11 -1 -11 -9 0 -8 -5 -18 -12 -22
-6 -4 -8 -3 -5 3 5 7 -6 11 -27 11 -31 0 -33 -2 -30 -29 2 -16 -1 -29 -6 -29
-6 0 -10 7 -10 16 0 8 -4 13 -9 10 -5 -3 -11 1 -15 9 -3 8 -11 15 -17 15 -8 0
-8 -4 1 -15 7 -9 10 -19 6 -22 -4 -4 -11 -1 -17 7 -7 11 -9 7 -7 -15 3 -25 -1
-30 -20 -31 -28 -2 -55 -23 -32 -25 8 -1 18 -1 23 0 4 0 7 -5 7 -12 1 -8 5 -7
13 4 15 19 47 32 47 19 0 -6 -7 -10 -15 -10 -18 0 -20 -30 -2 -31 6 -1 22 0
35 1 12 1 22 -2 22 -7 0 -5 9 -9 20 -9 23 0 27 21 6 33 -12 7 -12 10 0 21 8 7
14 10 14 6 0 -3 8 0 17 7 14 12 16 12 8 0 -6 -11 -4 -13 8 -8 9 3 18 -1 21
-10 9 -21 -3 -31 -14 -13 -7 12 -12 12 -22 2 -9 -9 -9 -12 4 -12 9 0 20 -5 24
-12 5 -8 2 -9 -12 -4 -10 4 -15 4 -11 0 4 -4 2 -13 -4 -20 -8 -10 -5 -11 12
-7 13 4 20 2 16 -3 -3 -6 3 -11 14 -11 21 -2 25 7 8 24 -7 7 -8 17 -3 25 5 7
7 25 6 39 -2 19 1 26 15 26 10 0 22 -5 26 -11 6 -7 7 -4 3 7 -3 9 -1 17 4 17
21 0 8 18 -17 25 -24 6 -26 8 -12 18 9 7 14 18 12 25 -3 6 3 12 12 12 9 0 13
5 10 10 -4 7 -13 7 -26 0 -12 -7 -19 -7 -19 -1 0 6 -6 8 -14 5 -9 -4 -16 3
-19 18 -4 19 -4 19 -5 3z m-27 -95 c3 -5 1 -10 -4 -10 -6 0 -11 5 -11 10 0 6
2 10 4 10 3 0 8 -4 11 -10z"/>
<path d="M347 763 c-4 -3 -7 -11 -7 -17 0 -6 5 -5 12 2 6 6 9 14 7 17 -3 3 -9
2 -12 -2z"/>
<path d="M478 763 c6 -2 18 -2 25 0 6 3 1 5 -13 5 -14 0 -19 -2 -12 -5z"/>
<path d="M665 760 c-3 -5 -2 -10 4 -10 5 0 13 5 16 10 3 6 2 10 -4 10 -5 0
-13 -4 -16 -10z"/>
<path d="M710 764 c0 -12 36 -35 44 -27 11 12 6 25 -8 20 -7 -3 -19 0 -25 6
-6 6 -11 7 -11 1z"/>
<path d="M2697 759 c9 -9 10 -16 1 -26 -8 -11 -7 -12 6 -7 21 8 21 30 -1 39
-14 5 -15 4 -6 -6z"/>
<path d="M1737 742 c-19 -21 -22 -32 -7 -32 6 0 10 6 10 14 0 8 6 16 13 19 6
2 9 7 6 11 -3 3 -13 -2 -22 -12z"/>
<path d="M2877 746 c-4 -10 -1 -13 9 -9 15 6 19 23 5 23 -5 0 -11 -7 -14 -14z"/>
<path d="M686 735 c-3 -9 0 -15 9 -15 8 0 15 -4 15 -10 0 -5 -4 -10 -10 -10
-5 0 -9 -3 -9 -7 4 -25 -2 -43 -13 -37 -7 5 -9 2 -5 -8 3 -9 0 -21 -6 -28 -9
-10 -9 -14 0 -17 9 -3 10 -10 3 -24 -6 -10 -7 -19 -2 -19 5 0 14 -10 20 -22 9
-19 10 -12 7 36 -3 48 -2 57 9 45 16 -18 39 -72 27 -65 -14 9 -23 -26 -9 -36
10 -7 9 -11 -4 -22 -25 -19 -22 -23 11 -18 23 3 28 8 23 21 -5 14 -4 14 11 2
16 -13 17 -12 8 11 -5 14 -7 29 -4 32 4 3 -4 14 -15 25 -12 10 -22 23 -22 28
0 6 -9 18 -19 27 -19 18 -18 61 2 49 6 -4 8 0 4 10 -3 9 -1 17 4 19 6 2 2 14
-9 26 -16 18 -21 20 -26 7z"/>
<path d="M2628 729 c-10 -10 -14 -20 -10 -22 4 -2 15 4 24 14 10 10 14 20 10
22 -4 2 -15 -4 -24 -14z"/>
<path d="M630 727 c0 -8 7 -17 15 -21 8 -3 15 -10 15 -16 0 -7 -6 -7 -21 0
-11 7 -24 9 -27 5 -3 -3 4 -8 16 -12 12 -3 22 -9 22 -14 0 -14 17 -11 23 4 2
7 -6 25 -19 40 -15 18 -24 23 -24 14z"/>
<path d="M775 730 c-16 -7 -17 -9 -3 -9 9 -1 20 4 23 9 7 11 7 11 -20 0z"/>
<path d="M1066 732 c-6 -10 0 -171 7 -178 3 -3 4 38 3 90 0 53 -2 96 -3 96 -1
0 -4 -4 -7 -8z"/>
<path d="M1156 723 c2 -6 -5 -15 -14 -19 -14 -6 -13 -8 8 -14 37 -12 70 -11
70 0 0 6 -10 8 -23 5 -17 -5 -25 -1 -33 17 -5 13 -9 18 -8 11z"/>
<path d="M2110 730 c0 -5 5 -10 11 -10 5 0 7 5 4 10 -3 6 -8 10 -11 10 -2 0
-4 -4 -4 -10z"/>
<path d="M365 720 c3 -5 8 -10 11 -10 2 0 4 5 4 10 0 6 -5 10 -11 10 -5 0 -7
-4 -4 -10z"/>
<path d="M2158 708 c-14 -18 -20 -19 -33 -8 -15 12 -16 11 -19 -22 -1 -6 12
-13 27 -15 18 -3 26 0 22 7 -3 5 -2 10 3 10 9 0 25 40 19 46 -1 2 -10 -7 -19
-18z"/>
<path d="M2265 720 c3 -5 8 -10 11 -10 2 0 4 5 4 10 0 6 -5 10 -11 10 -5 0 -7
-4 -4 -10z"/>
<path d="M2741 710 c14 -31 19 -36 19 -24 0 6 -7 19 -16 30 -14 18 -14 18 -3
-6z"/>
<path d="M1230 705 c7 -8 16 -12 21 -9 13 8 1 24 -18 24 -13 0 -13 -3 -3 -15z"/>
<path d="M1750 711 c0 -6 5 -13 10 -16 6 -3 10 1 10 9 0 9 -4 16 -10 16 -5 0
-10 -4 -10 -9z"/>
<path d="M2055 702 c-20 -17 -20 -17 2 -38 24 -24 33 -15 33 32 0 28 -8 30
-35 6z m25 -22 c0 -5 -2 -10 -4 -10 -3 0 -8 5 -11 10 -3 6 -1 10 4 10 6 0 11
-4 11 -10z"/>
<path d="M3861 702 c-14 -12 -14 -12 3 -4 10 5 27 7 37 5 11 -3 19 -1 19 4 0
13 -40 10 -59 -5z"/>
<path d="M1974 676 c0 -19 4 -32 9 -29 4 3 7 12 6 21 -3 32 1 36 16 16 14 -18
14 -18 8 4 -3 12 -13 22 -22 22 -13 0 -17 -8 -17 -34z"/>
<path d="M2816 695 c-3 -8 -11 -14 -18 -13 -8 2 -14 -8 -16 -24 -2 -15 -14
-34 -28 -43 -24 -15 -27 -15 -44 0 -12 11 -20 13 -25 6 -3 -6 1 -11 9 -11 9 0
16 -4 16 -10 0 -5 -7 -7 -15 -4 -8 4 -15 2 -15 -4 0 -5 8 -13 17 -16 15 -6 15
-8 3 -17 -12 -8 -9 -9 10 -5 14 3 29 6 34 6 4 0 5 7 2 16 -4 12 -1 14 13 9 14
-4 21 0 26 14 4 14 11 18 23 14 15 -6 15 -5 3 10 -12 15 -12 17 3 11 9 -3 16
-1 16 4 0 6 -9 14 -20 17 -11 3 -20 10 -20 15 0 5 13 2 29 -7 28 -17 29 -17
13 -50 -12 -26 -18 -30 -29 -21 -11 8 -12 7 -7 -7 4 -10 1 -20 -7 -25 -7 -5
-10 -13 -5 -17 5 -4 11 -2 13 5 3 6 14 12 26 12 20 0 20 0 1 -15 -11 -8 -14
-15 -6 -15 17 0 15 -20 -2 -20 -8 0 -17 -7 -20 -15 -6 -17 38 -40 61 -31 7 3
13 2 13 -3 0 -5 -11 -12 -25 -15 -14 -4 -25 -11 -25 -16 0 -13 17 -13 25 0 3
6 18 10 32 10 21 0 23 3 14 14 -15 18 11 30 28 13 6 -6 11 -7 11 -2 0 5 12 -2
26 -16 26 -24 26 -24 15 -1 -14 26 -4 29 16 5 14 -17 14 -17 9 0 -3 9 -1 17 4
17 16 0 21 -19 10 -42 -10 -21 -10 -22 4 -4 8 10 19 15 25 11 20 -12 11 12
-13 34 -14 13 -23 28 -20 35 2 6 -1 18 -6 26 -9 13 -12 13 -24 -2 -19 -25 -27
-22 -22 6 2 14 -1 27 -7 29 -9 3 -8 8 2 18 12 12 13 12 6 0 -6 -10 -4 -12 4
-7 9 6 9 11 0 22 -15 18 -18 18 -27 -6 -5 -13 -12 -16 -20 -11 -11 6 -10 12 4
25 12 13 14 20 5 29 -8 8 -11 7 -11 -5 0 -16 -28 -33 -38 -23 -3 3 0 5 6 5 7
0 12 7 12 16 0 8 -4 12 -10 9 -5 -3 -7 0 -4 9 3 8 -2 16 -13 19 -15 4 -15 5
-2 6 9 0 19 8 22 15 4 10 1 13 -8 10 -7 -3 -22 -1 -33 5 -16 8 -21 7 -26 -4z
m74 -132 c0 -13 -3 -13 -15 -3 -8 7 -15 16 -15 21 0 5 7 6 15 3 8 -4 15 -13
15 -21z m-25 -13 c3 -5 1 -10 -4 -10 -6 0 -11 5 -11 10 0 6 2 10 4 10 3 0 8
-4 11 -10z m67 -57 c-8 -11 -16 -4 -18 17 -4 23 -3 24 8 5 6 -11 11 -21 10
-22z"/>
<path d="M486 685 c-3 -8 -1 -15 3 -15 5 0 11 7 15 15 3 8 1 15 -3 15 -5 0
-11 -7 -15 -15z"/>
<path d="M575 690 c3 -5 8 -10 11 -10 2 0 4 5 4 10 0 6 -5 10 -11 10 -5 0 -7
-4 -4 -10z"/>
<path d="M820 658 c1 -40 2 -42 16 -23 8 11 12 26 9 33 -3 8 -5 18 -5 23 0 5
-4 9 -10 9 -5 0 -10 -19 -10 -42z"/>
<path d="M910 676 c0 -14 5 -26 10 -26 6 0 10 9 10 19 0 11 -4 23 -10 26 -6 4
-10 -5 -10 -19z"/>
<path d="M1026 533 c3 -92 7 -170 10 -173 3 -3 4 73 2 167 -1 95 -6 173 -10
173 -3 0 -4 -75 -2 -167z"/>
<path d="M2185 684 c-17 -13 -18 -17 -6 -37 11 -18 11 -20 0 -9 -20 18 -53 15
-67 -8 -13 -22 -3 -27 16 -8 7 7 12 9 12 6 0 -4 -7 -14 -16 -23 -9 -9 -14 -18
-11 -21 8 -8 46 33 39 42 -4 4 -1 4 6 0 6 -4 12 -13 12 -19 0 -7 12 -17 26
-24 23 -10 24 -10 19 8 -4 11 -3 18 2 17 4 -2 9 1 10 6 1 5 7 13 15 17 10 7
10 9 1 9 -7 0 -13 5 -13 10 0 6 8 10 17 10 16 0 16 1 -1 18 -13 12 -20 14 -23
5 -3 -7 -9 -13 -15 -13 -6 0 -8 7 -4 15 7 18 6 18 -19 -1z"/>
<path d="M2410 675 c0 -14 4 -25 9 -25 4 0 6 11 3 25 -2 14 -6 25 -8 25 -2 0
-4 -11 -4 -25z"/>
<path d="M313 675 c0 -8 4 -12 9 -9 5 3 6 10 3 15 -9 13 -12 11 -12 -6z"/>
<path d="M346 673 c-6 -14 -5 -15 5 -6 7 7 10 15 7 18 -3 3 -9 -2 -12 -12z"/>
<path d="M1106 673 c-6 -14 -5 -15 5 -6 7 7 10 15 7 18 -3 3 -9 -2 -12 -12z"/>
<path d="M2895 677 c-16 -13 -17 -14 -1 -20 9 -4 15 -3 11 2 -3 5 1 11 7 14 7
2 10 7 7 11 -3 3 -14 0 -24 -7z"/>
<path d="M506 664 c-5 -14 -4 -15 9 -4 17 14 19 20 6 20 -5 0 -12 -7 -15 -16z"/>
<path d="M960 670 c0 -5 7 -10 16 -10 8 0 12 5 9 10 -3 6 -10 10 -16 10 -5 0
-9 -4 -9 -10z"/>
<path d="M2270 659 c0 -11 7 -27 15 -35 13 -14 15 -14 15 0 0 9 -4 16 -9 16
-5 0 -7 9 -4 20 3 11 0 20 -6 20 -6 0 -11 -9 -11 -21z"/>
<path d="M2725 670 c-3 -5 -1 -10 4 -10 6 0 11 5 11 10 0 6 -2 10 -4 10 -3 0
-8 -4 -11 -10z"/>
<path d="M3970 671 c0 -5 6 -12 13 -14 10 -4 10 -6 0 -6 -18 -1 -16 -21 2 -21
16 0 19 9 9 34 -7 17 -24 22 -24 7z"/>
<path d="M257 656 c-3 -8 -2 -18 3 -21 13 -8 20 9 11 24 -6 10 -10 9 -14 -3z"/>
<path d="M1680 655 c0 -8 5 -15 10 -15 6 0 10 7 10 15 0 8 -4 15 -10 15 -5 0
-10 -7 -10 -15z"/>
<path d="M133 645 c0 -8 4 -12 9 -9 4 3 8 9 8 15 0 5 -4 9 -8 9 -5 0 -9 -7 -9
-15z"/>
<path d="M226 638 c-3 -13 -1 -27 4 -32 6 -6 10 -17 10 -25 0 -13 -2 -13 -9
-2 -7 11 -13 10 -35 -4 -22 -15 -25 -15 -20 -2 3 8 1 18 -4 21 -5 3 -12 -3
-15 -14 -3 -12 1 -21 12 -24 9 -2 27 -8 40 -11 18 -6 22 -4 16 6 -6 11 -5 12
5 2 10 -9 17 -9 26 -2 9 7 12 5 10 -8 -2 -12 -11 -18 -29 -17 -14 0 -24 -4
-21 -8 3 -4 22 -8 42 -9 30 0 33 -2 16 -9 -24 -9 -74 -2 -74 12 0 5 -4 7 -9 4
-5 -4 -11 -1 -13 5 -2 6 -21 13 -42 15 -24 3 -35 1 -31 -6 3 -6 11 -7 17 -4 7
5 9 1 5 -9 -3 -10 -3 -17 2 -17 5 0 8 -7 7 -17 -1 -10 10 -19 32 -25 37 -10
37 -11 17 -42 -19 -29 -10 -56 19 -56 12 0 16 -3 10 -8 -15 -10 -25 -42 -14
-42 6 0 10 7 10 16 0 14 2 15 17 3 15 -12 16 -12 10 4 -5 13 -2 17 11 15 10
-2 17 3 17 12 0 8 8 21 17 28 15 11 25 9 62 -8 25 -11 48 -24 51 -30 8 -13 25
-13 25 1 0 5 -4 8 -9 4 -6 -3 -15 4 -21 15 -7 13 -7 20 0 20 5 0 10 -3 10 -8
0 -16 42 -34 53 -23 16 16 27 13 21 -4 -4 -8 -1 -15 4 -15 17 0 25 21 14 32
-6 6 -8 17 -5 26 4 10 2 13 -5 8 -6 -3 -13 -2 -16 3 -3 5 1 11 9 15 18 6 21 1
30 -47 4 -20 11 -37 17 -37 5 0 6 5 2 12 -5 7 -2 9 9 5 9 -3 18 1 21 10 4 9 9
13 12 10 3 -3 -2 -17 -11 -31 -11 -16 -13 -26 -6 -26 6 0 18 15 26 33 l15 32
-3 -32 c-3 -28 -1 -31 23 -31 15 1 33 -3 40 -7 9 -5 11 -4 6 3 -4 7 -14 12
-22 12 -8 0 -14 4 -14 9 0 5 15 7 33 5 24 -4 28 -2 17 6 -13 9 -13 11 0 20 8
5 10 10 3 10 -6 0 -9 9 -6 21 4 13 12 19 23 16 10 -2 17 1 17 9 0 17 -19 18
-36 2 -11 -11 -14 -10 -18 0 -5 13 -23 7 -23 -9 0 -6 4 -8 9 -4 6 3 9 -3 8
-14 0 -11 -6 -17 -14 -14 -7 3 -13 -2 -13 -11 0 -9 -4 -16 -10 -16 -14 0 -12
11 5 31 14 15 14 18 0 32 -19 19 -20 31 -1 24 7 -3 19 0 26 6 10 9 14 9 17 0
4 -10 8 -9 19 1 20 20 18 24 -12 20 -14 -1 -23 1 -19 4 4 4 12 7 18 7 5 0 12
7 14 15 3 11 2 11 -4 3 -5 -7 -14 -9 -22 -4 -11 7 -9 12 9 21 17 9 19 14 10
20 -8 5 -14 29 -14 62 -1 53 -1 53 -34 56 -22 2 -41 -3 -53 -14 -11 -10 -19
-12 -19 -6 0 7 -5 12 -11 12 -6 0 -8 -9 -4 -22 7 -22 6 -22 -7 -4 -12 16 -16
17 -24 5 -16 -26 -13 -40 7 -34 11 4 19 2 19 -5 0 -6 -4 -9 -9 -5 -13 7 -26
-15 -14 -24 5 -3 12 -14 16 -23 3 -10 14 -17 24 -17 17 1 17 2 1 6 -10 2 -18
9 -18 14 0 11 11 11 29 0 12 -8 12 -12 2 -24 -6 -9 -8 -17 -2 -19 14 -5 18
-61 4 -65 -7 -3 -10 4 -6 19 4 19 1 17 -17 -9 -12 -18 -24 -33 -27 -33 -3 0 2
11 10 24 20 30 18 67 -5 84 -10 7 -18 19 -18 27 0 8 -5 17 -12 21 -7 4 -8 3
-4 -4 13 -22 -5 -12 -29 16 -13 15 -25 21 -25 14 0 -7 -4 -11 -10 -7 -5 3 -7
12 -3 20 3 8 0 15 -6 15 -6 0 -11 -7 -11 -15 0 -8 -5 -15 -11 -15 -5 0 -7 5
-4 10 3 6 1 10 -4 10 -20 0 -11 -20 12 -30 18 -7 18 -9 4 -9 -10 -1 -16 -5
-13 -10 4 -5 -2 -7 -12 -4 -14 3 -18 12 -15 31 4 23 2 24 -7 10 -6 -9 -17 -15
-25 -12 -8 4 -15 1 -15 -5 0 -6 7 -11 15 -11 8 0 15 -5 15 -11 0 -5 -5 -7 -11
-3 -6 3 -15 1 -19 -5 -4 -7 -7 1 -8 19 0 18 5 33 13 36 15 6 9 34 -7 34 -5 0
-7 -4 -3 -10 3 -5 0 -19 -7 -32 -7 -13 -14 -24 -15 -26 0 -2 -12 6 -26 18 -17
15 -23 28 -19 46 6 30 -4 32 -12 2z m384 -22 c0 -4 -9 -1 -19 6 -11 7 -17 16
-15 20 5 8 34 -15 34 -26z m-38 -23 c-10 -4 -10 -8 -1 -19 13 -15 9 -17 -15
-8 -13 5 -14 9 -5 20 6 8 17 14 23 13 6 0 6 -3 -2 -6z m48 -9 c0 -9 5 -12 13
-8 7 5 6 0 -3 -11 -14 -17 -13 -18 3 -12 21 8 24 -25 4 -42 -11 -8 -19 -5 -36
13 l-22 23 21 6 c18 5 20 9 10 26 -7 14 -7 21 0 21 5 0 10 -7 10 -16z m-166
-23 c3 -5 -1 -11 -9 -14 -9 -4 -12 -1 -8 9 6 16 10 17 17 5z m-39 -11 c3 -5 1
-10 -4 -10 -6 0 -11 5 -11 10 0 6 2 10 4 10 3 0 8 -4 11 -10z m-58 -32 c-1
-18 2 -22 17 -20 18 3 18 2 2 -13 -13 -14 -20 -15 -31 -5 -8 7 -12 16 -9 21 5
8 -10 13 -29 10 -5 -1 -6 3 -2 9 4 6 15 8 26 5 11 -4 19 -2 19 4 0 6 2 11 5
11 3 0 4 -10 2 -22z m141 -13 c-3 -3 -9 2 -12 12 -6 14 -5 15 5 6 7 -7 10 -15
7 -18z m115 -20 c10 -14 13 -25 7 -25 -5 0 -10 6 -10 13 0 8 -3 7 -10 -3 -5
-8 -13 -11 -17 -6 -4 5 -2 11 5 13 10 4 10 8 1 19 -6 8 -8 14 -3 14 5 0 17
-12 27 -25z m-375 -19 c9 2 28 -5 42 -16 16 -13 19 -18 7 -14 -15 6 -17 3 -11
-20 5 -22 3 -26 -14 -26 -11 0 -22 7 -26 15 -7 18 5 20 22 3 7 -7 12 -8 12 -2
0 5 -10 15 -21 23 -18 11 -23 11 -30 -1 -7 -10 -9 -10 -9 3 0 9 -7 22 -15 29
-23 19 -18 33 6 17 11 -8 28 -13 37 -11z m209 7 c1 -10 -1 -25 -4 -33 -8 -19
-10 -27 -12 -40 0 -5 -6 -10 -12 -10 -5 0 -8 4 -4 9 3 5 1 12 -4 15 -5 4 -12
2 -16 -4 -10 -16 -25 -12 -25 8 0 14 2 14 9 3 7 -11 12 -10 22 8 8 11 20 21
27 21 8 0 12 6 9 14 -3 8 -3 17 0 20 9 9 10 8 10 -11z m73 -13 c0 -5 -5 -10
-11 -10 -5 0 -7 5 -4 10 3 6 8 10 11 10 2 0 4 -4 4 -10z m-320 -80 c0 -5 -2
-10 -4 -10 -3 0 -8 5 -11 10 -3 6 -1 10 4 10 6 0 11 -4 11 -10z"/>
<path d="M250 450 c0 -5 5 -10 11 -10 5 0 7 5 4 10 -3 6 -8 10 -11 10 -2 0 -4
-4 -4 -10z"/>
<path d="M733 643 c-1 -12 6 -18 23 -19 13 -1 24 2 24 7 0 5 -7 9 -15 9 -8 0
-15 5 -15 10 0 18 -16 11 -17 -7z"/>
<path d="M3270 650 c0 -5 5 -10 10 -10 6 0 10 -4 10 -10 0 -5 -7 -10 -15 -10
-23 0 -18 -14 10 -27 14 -6 25 -7 25 -3 0 5 -6 11 -12 14 -10 5 -10 7 0 12 17
8 15 17 -8 32 -12 7 -20 8 -20 2z"/>
<path d="M3519 643 c-13 -16 -12 -17 4 -4 16 13 21 21 13 21 -2 0 -10 -8 -17
-17z"/>
<path d="M970 609 c0 -24 5 -51 11 -59 7 -11 9 -1 5 39 -6 66 -16 79 -16 20z"/>
<path d="M1270 640 c0 -5 4 -10 10 -10 5 0 7 -8 3 -17 -4 -14 -3 -15 6 -7 6 6
9 18 5 27 -7 18 -24 23 -24 7z"/>
<path d="M2524 634 c3 -9 6 -20 6 -25 0 -5 11 -8 25 -7 28 3 30 6 11 30 -10
14 -15 15 -26 5 -10 -9 -11 -9 -6 1 4 6 2 12 -4 12 -7 0 -9 -7 -6 -16z"/>
<path d="M2714 638 c-3 -4 -3 -8 0 -8 2 0 11 -3 19 -6 8 -3 17 1 20 8 5 15
-31 20 -39 6z"/>
<path d="M3428 638 c8 -8 7 -15 -6 -24 -14 -11 -15 -13 -1 -14 15 0 39 18 39
31 0 4 -10 9 -21 12 -16 4 -19 3 -11 -5z"/>
<path d="M3550 635 c-10 -12 -10 -15 4 -15 9 0 16 7 16 15 0 8 -2 15 -4 15 -2
0 -9 -7 -16 -15z"/>
<path d="M340 630 c0 -5 5 -10 11 -10 5 0 7 5 4 10 -3 6 -8 10 -11 10 -2 0 -4
-4 -4 -10z"/>
<path d="M915 588 c3 -72 4 -78 14 -78 5 0 8 12 6 28 -2 15 -4 44 -4 65 -1 20
-5 37 -9 37 -5 0 -8 -24 -7 -52z"/>
<path d="M1437 625 c-8 -8 -17 -11 -21 -8 -3 4 -6 1 -6 -5 0 -7 6 -12 14 -12
8 0 13 -8 12 -17 0 -10 7 -19 18 -21 11 -3 16 0 11 7 -3 6 -11 9 -16 6 -5 -4
-9 -2 -9 3 0 5 9 12 20 15 11 3 20 11 20 17 0 10 -3 10 -15 0 -18 -15 -20 1
-3 18 8 8 9 12 1 12 -6 0 -18 -7 -26 -15z"/>
<path d="M2010 622 c6 -13 14 -21 18 -18 3 4 -2 14 -12 24 -18 16 -18 16 -6
-6z"/>
<path d="M2403 625 c-7 -21 4 -32 19 -17 9 9 9 12 -2 12 -13 0 -13 2 0 10 10
7 11 10 2 10 -7 0 -15 -7 -19 -15z"/>
<path d="M2972 631 c-11 -6 -10 -10 4 -15 20 -8 32 0 18 14 -5 5 -15 5 -22 1z"/>
<path d="M3361 631 c-8 -5 -9 -11 -3 -15 5 -3 12 1 16 9 6 17 6 18 -13 6z"/>
<path d="M2655 620 c3 -5 8 -10 11 -10 2 0 4 5 4 10 0 6 -5 10 -11 10 -5 0 -7
-4 -4 -10z"/>
<path d="M3580 618 c0 -7 5 -20 11 -28 8 -12 9 -10 4 9 -5 16 -4 21 4 17 6 -4
11 -2 11 3 0 6 -7 11 -15 11 -8 0 -15 -6 -15 -12z"/>
<path d="M3880 611 c-8 -16 -7 -20 9 -18 12 1 17 7 13 19 -6 23 -9 23 -22 -1z"/>
<path d="M3926 603 c-3 -7 -2 -12 2 -12 20 3 65 -3 54 -8 -13 -5 -7 -23 9 -23
13 0 11 37 -3 46 -20 12 -57 11 -62 -3z"/>
<path d="M456 598 c3 -5 10 -6 15 -3 13 9 11 12 -6 12 -8 0 -12 -4 -9 -9z"/>
<path d="M745 600 c-3 -5 -1 -10 4 -10 6 0 11 5 11 10 0 6 -2 10 -4 10 -3 0
-8 -4 -11 -10z"/>
<path d="M830 591 c0 -22 -23 -44 -35 -33 -5 4 -5 2 -2 -5 4 -6 16 -9 26 -6
14 3 19 0 18 -13 -1 -9 4 -19 12 -22 10 -3 12 0 8 12 -4 10 -7 33 -7 52 0 19
-4 34 -10 34 -5 0 -10 -8 -10 -19z"/>
<path d="M871 594 c0 -11 3 -14 6 -6 3 7 2 16 -1 19 -3 4 -6 -2 -5 -13z"/>
<path d="M2476 598 c3 -5 10 -6 15 -3 13 9 11 12 -6 12 -8 0 -12 -4 -9 -9z"/>
<path d="M3457 603 c-12 -12 -7 -22 8 -17 8 4 15 10 15 15 0 11 -14 12 -23 2z"/>
<path d="M90 589 c0 -5 5 -7 10 -4 6 3 10 8 10 11 0 2 -4 4 -10 4 -5 0 -10 -5
-10 -11z"/>
<path d="M1395 580 c3 -5 8 -10 11 -10 2 0 4 5 4 10 0 6 -5 10 -11 10 -5 0 -7
-4 -4 -10z"/>
<path d="M1580 575 c7 -9 15 -13 17 -11 7 7 -7 26 -19 26 -6 0 -6 -6 2 -15z"/>
<path d="M3566 565 c9 -14 20 -22 25 -20 9 6 -20 45 -33 45 -5 0 -1 -11 8 -25z"/>
<path d="M37 574 c-6 -7 23 -66 37 -76 6 -4 0 -8 -15 -8 -25 0 -49 16 -49 33
0 4 5 5 11 1 9 -5 -2 26 -15 43 -1 1 -3 -16 -3 -38 -1 -24 2 -37 8 -33 6 3 7
-4 3 -20 -4 -17 -2 -26 6 -26 9 0 11 -10 7 -30 -5 -23 -2 -32 13 -40 14 -7 20
-7 20 0 0 5 -7 10 -16 10 -11 0 -14 5 -10 16 3 9 6 25 6 35 0 16 5 19 19 14
25 -8 33 7 35 66 1 39 -2 49 -14 47 -8 -1 -20 1 -26 4 -6 4 -14 5 -17 2z"/>
<path d="M1240 571 c0 -5 7 -12 16 -15 8 -3 12 -11 8 -17 -4 -8 -3 -9 4 -5 7
4 12 14 12 22 0 8 -4 12 -10 9 -5 -3 -10 -1 -10 4 0 6 -4 11 -10 11 -5 0 -10
-4 -10 -9z"/>
<path d="M2400 570 c0 -5 5 -10 10 -10 6 0 10 5 10 10 0 6 -4 10 -10 10 -5 0
-10 -4 -10 -10z"/>
<path d="M2510 561 c0 -28 24 -45 39 -27 7 9 8 17 2 20 -5 3 -12 0 -15 -6 -3
-7 -3 -3 0 10 4 16 1 22 -10 22 -9 0 -16 -8 -16 -19z"/>
<path d="M870 556 c0 -8 5 -18 10 -21 6 -3 10 1 10 9 0 8 -4 18 -10 21 -5 3
-10 -1 -10 -9z"/>
<path d="M1118 558 c13 -6 21 -17 18 -23 -3 -10 31 -35 47 -35 1 0 3 16 4 35
3 36 -10 48 -21 19 -5 -14 -8 -14 -28 0 -12 9 -27 16 -33 15 -5 0 0 -5 13 -11z"/>
<path d="M1928 548 c2 -10 8 -18 13 -18 5 0 9 8 9 18 0 10 -6 19 -14 19 -8 0
-11 -8 -8 -19z"/>
<path d="M2448 562 c-10 -2 -18 -11 -18 -20 0 -15 2 -15 10 -2 5 8 10 10 10 4
0 -18 38 -24 44 -7 9 22 7 33 -5 33 -6 0 -8 -8 -5 -17 5 -16 5 -16 -6 -3 -7 9
-21 14 -30 12z"/>
<path d="M3328 558 c-4 -10 -3 -18 3 -18 6 0 8 -4 4 -9 -3 -5 -20 -8 -38 -6
-17 2 -26 1 -19 -2 6 -2 12 -9 12 -14 0 -6 -4 -8 -9 -5 -5 3 -12 -1 -15 -10
-6 -15 -4 -15 19 0 26 17 30 12 25 -24 -2 -18 -21 -31 -32 -24 -5 3 -8 2 -7
-3 3 -20 -2 -29 -20 -30 -13 -1 -20 6 -23 22 -4 21 -3 23 13 14 15 -7 19 -6
19 6 0 8 -4 15 -10 15 -5 0 -7 6 -4 13 3 8 -3 20 -12 28 -16 13 -17 12 -12 -7
5 -19 2 -22 -19 -19 -17 2 -23 -2 -19 -11 4 -9 -2 -14 -15 -14 -14 0 -19 5
-16 14 3 8 0 17 -8 20 -7 2 -15 15 -18 28 -4 20 -4 19 -6 -5 0 -15 6 -41 14
-58 10 -19 12 -28 4 -27 -6 2 -14 -3 -17 -11 -3 -9 0 -11 8 -6 10 6 12 4 7 -7
-4 -12 -1 -14 14 -11 10 3 19 10 19 15 0 5 -4 6 -10 3 -6 -3 -7 1 -4 9 9 24
31 19 29 -6 -1 -13 5 -33 13 -45 8 -13 11 -23 6 -23 -4 0 2 -10 13 -22 18 -20
19 -25 7 -36 -10 -10 -14 -10 -14 -1 0 7 -2 10 -5 7 -3 -3 -3 -13 1 -22 5 -13
9 -14 20 -5 12 10 13 8 8 -7 -6 -15 -4 -17 6 -7 11 10 18 9 34 -5 14 -11 13
-8 -4 12 -18 21 -21 30 -12 34 9 3 6 8 -9 16 -15 7 -24 21 -26 39 -2 28 11 37
20 15 4 -10 6 -10 6 0 1 7 6 10 11 7 8 -5 7 -11 -1 -21 -10 -12 -10 -15 2 -12
8 2 13 -3 12 -9 -2 -7 2 -13 8 -13 7 0 9 10 7 25 -6 29 -2 31 18 10 9 -8 20
-15 26 -15 6 0 6 6 -2 15 -9 10 -9 15 -1 15 22 0 26 -2 23 -12 -1 -5 2 -7 7
-3 6 3 7 13 4 21 -4 12 -1 15 13 12 13 -3 18 -11 17 -26 -2 -12 2 -22 8 -22 5
0 7 5 4 10 -3 6 -1 10 6 10 8 0 7 5 -2 17 -10 12 -11 17 -2 20 7 2 9 11 6 19
-3 8 0 14 6 14 11 0 14 -18 13 -70 -1 -25 -1 -25 6 -2 7 24 19 27 40 10 9 -8
11 -7 6 6 -3 9 -1 16 6 16 7 0 6 5 -4 15 -8 8 -18 15 -22 15 -3 0 -1 -7 6 -15
10 -12 10 -15 -3 -15 -11 0 -15 9 -15 30 1 16 5 27 9 24 5 -3 25 -1 44 5 29 8
37 6 45 -7 9 -16 11 -15 26 3 8 11 22 19 31 17 14 -3 14 -2 -1 13 -9 9 -16 21
-16 27 0 6 -10 8 -23 4 -16 -4 -26 1 -36 16 -11 17 -15 18 -22 7 -8 -12 -11
-12 -19 1 -7 11 -10 11 -10 2 0 -7 13 -18 29 -23 16 -6 32 -17 35 -25 4 -9 2
-12 -5 -8 -14 9 -89 11 -89 2 0 -15 -60 15 -61 30 0 14 -2 14 -6 2 -8 -20 -23
-29 -39 -23 -10 4 -11 9 -1 26 7 12 17 26 22 30 6 5 3 7 -7 3 -11 -3 -18 1
-20 12 -3 16 -4 16 -10 0z m252 -78 c0 -5 -4 -10 -10 -10 -5 0 -10 5 -10 10 0
6 5 10 10 10 6 0 10 -4 10 -10z m-184 -30 c-1 -24 -3 -27 -14 -16 -7 7 -10 20
-6 29 10 27 21 20 20 -13z m110 15 c-20 -15 -36 -19 -36 -10 0 5 38 23 50 24
3 0 -4 -6 -14 -14z m-291 -65 c-3 -5 -11 -10 -16 -10 -6 0 -7 5 -4 10 3 6 11
10 16 10 6 0 7 -4 4 -10z"/>
<path d="M3890 550 c0 -13 -5 -18 -15 -14 -9 4 -15 0 -15 -7 -1 -9 -6 -7 -15
5 -8 11 -17 17 -20 14 -3 -2 4 -13 15 -23 16 -15 25 -16 44 -7 16 7 24 19 23
32 -2 26 -17 26 -17 0z"/>
<path d="M1412 551 c2 -7 7 -12 11 -12 12 1 9 15 -3 20 -7 2 -11 -2 -8 -8z"/>
<path d="M2022 540 c-18 -29 -15 -38 4 -12 9 13 14 25 12 27 -2 2 -9 -5 -16
-15z"/>
<path d="M3230 552 c0 -5 7 -17 16 -28 14 -17 15 -17 10 -1 -3 10 -6 23 -6 28
0 5 -4 9 -10 9 -5 0 -10 -4 -10 -8z"/>
<path d="M3675 550 c-3 -5 -1 -10 4 -10 6 0 11 5 11 10 0 6 -2 10 -4 10 -3 0
-8 -4 -11 -10z"/>
<path d="M1202 530 c0 -14 2 -19 5 -12 2 6 2 18 0 25 -3 6 -5 1 -5 -13z"/>
<path d="M1718 543 c16 -6 15 -18 -4 -38 -9 -9 -14 -18 -11 -21 3 -3 13 3 23
15 10 11 21 18 26 15 13 -9 9 4 -8 20 -8 9 -21 16 -27 15 -9 0 -8 -2 1 -6z"/>
<path d="M2053 532 c0 -22 17 -43 28 -36 16 9 10 26 -7 20 -12 -4 -15 -2 -11
9 4 8 3 17 -2 19 -4 3 -8 -3 -8 -12z"/>
<path d="M2150 540 c-8 -5 -10 -10 -5 -10 6 0 17 5 25 10 8 5 11 10 5 10 -5 0
-17 -5 -25 -10z"/>
<path d="M2400 541 c0 -6 5 -13 10 -16 6 -3 10 1 10 9 0 9 -4 16 -10 16 -5 0
-10 -4 -10 -9z"/>
<path d="M2584 534 c9 -8 24 -13 34 -11 16 4 16 5 0 6 -10 0 -18 6 -18 11 0 6
-7 10 -16 10 -14 0 -14 -1 0 -16z"/>
<path d="M2740 540 c0 -5 5 -10 10 -10 6 0 10 5 10 10 0 6 -4 10 -10 10 -5 0
-10 -4 -10 -10z"/>
<path d="M1068 452 c-4 -91 -2 -113 9 -72 6 22 7 23 14 4 7 -16 8 -17 8 -1 1
9 8 17 16 17 8 0 15 5 15 10 0 6 -5 10 -11 10 -8 0 -7 5 1 15 7 9 10 19 6 23
-4 4 -16 -4 -26 -18 l-20 -25 1 55 c1 42 3 49 9 30 l8 -25 1 26 c1 15 -5 29
-13 32 -11 5 -15 -12 -18 -81z"/>
<path d="M1605 530 c3 -5 11 -10 16 -10 6 0 7 5 4 10 -3 6 -11 10 -16 10 -6 0
-7 -4 -4 -10z"/>
<path d="M1680 524 c0 -8 5 -12 10 -9 6 3 10 10 10 16 0 5 -4 9 -10 9 -5 0
-10 -7 -10 -16z"/>
<path d="M2096 504 c1 -19 -2 -37 -7 -40 -5 -3 -9 0 -9 5 0 6 -5 11 -11 11 -8
0 -8 -4 -2 -12 16 -20 22 -57 11 -64 -5 -3 -12 4 -15 16 -4 16 -8 18 -14 9 -9
-15 25 -49 49 -49 9 0 12 -6 8 -16 -3 -8 -2 -12 4 -9 6 3 10 12 10 20 0 8 9
20 19 27 16 12 17 16 6 32 -13 17 -14 17 -23 -1 -5 -10 -7 -24 -5 -30 3 -7 1
-13 -4 -13 -19 0 -21 13 -6 36 9 14 13 28 9 31 -3 4 4 18 16 32 13 14 16 20 8
14 -19 -17 -33 -16 -27 1 3 8 0 19 -6 25 -9 7 -12 1 -11 -25z"/>
<path d="M2669 535 c-1 -5 -1 -14 0 -19 1 -5 -5 -4 -13 4 -19 15 -21 0 -3 -24
10 -14 28 -19 66 -20 56 -2 65 2 50 24 -6 10 -9 11 -9 3 0 -7 -4 -13 -10 -13
-5 0 -7 6 -4 13 3 8 -3 20 -12 28 -15 12 -16 12 -10 -9 4 -12 3 -22 -3 -22 -5
0 -18 -3 -28 -7 -16 -6 -16 -4 2 17 11 13 14 20 6 15 -8 -4 -17 -2 -22 6 -5 8
-9 10 -10 4z"/>
<path d="M3400 531 c0 -5 7 -11 15 -15 8 -3 15 -1 15 3 0 5 -7 11 -15 15 -8 3
-15 1 -15 -3z"/>
<path d="M3645 530 c-3 -5 -1 -10 4 -10 6 0 11 5 11 10 0 6 -2 10 -4 10 -3 0
-8 -4 -11 -10z"/>
<path d="M970 520 c0 -5 5 -10 10 -10 6 0 10 5 10 10 0 6 -4 10 -10 10 -5 0
-10 -4 -10 -10z"/>
<path d="M1800 522 c0 -5 7 -15 15 -22 8 -7 15 -9 15 -6 0 4 -7 14 -15 22 -8
9 -15 11 -15 6z"/>
<path d="M2440 523 c0 -7 -3 -12 -7 -12 -22 4 -43 -2 -43 -12 0 -6 7 -9 15 -5
9 3 15 0 15 -10 0 -11 -6 -14 -16 -10 -11 4 -14 1 -12 -12 2 -9 10 -16 16 -14
7 1 22 -2 32 -8 12 -6 20 -7 20 -1 0 5 -5 11 -11 13 -7 2 -9 13 -5 26 6 18 11
20 27 12 13 -7 19 -7 19 0 0 5 -5 10 -11 10 -7 0 -18 8 -25 18 -8 10 -13 12
-14 5z"/>
<path d="M793 502 c1 -23 18 -25 25 -2 3 7 0 10 -6 6 -6 -3 -12 0 -15 6 -3 7
-4 3 -4 -10z"/>
<path d="M3460 511 c0 -5 5 -13 10 -16 6 -3 10 -2 10 4 0 5 -4 13 -10 16 -5 3
-10 2 -10 -4z"/>
<path d="M3620 510 c0 -5 7 -10 15 -10 9 0 12 -6 9 -15 -4 -8 -1 -15 5 -15 17
0 13 37 -5 44 -21 8 -24 8 -24 -4z"/>
<path d="M3964 505 c22 -17 36 -19 36 -6 0 10 -24 21 -43 21 -7 0 -3 -7 7 -15z"/>
<path d="M1114 495 c3 -20 13 -28 25 -20 8 4 6 11 -3 21 -18 18 -25 18 -22 -1z"/>
<path d="M1230 504 c0 -13 18 -39 24 -34 2 3 -2 14 -10 24 -8 11 -14 16 -14
10z"/>
<path d="M1273 483 l-21 -28 -24 22 -24 22 -12 -20 c-15 -23 -1 -49 24 -49 8
0 14 -5 14 -11 0 -5 -5 -7 -10 -4 -6 4 -18 1 -27 -7 -14 -11 -16 -11 -11 4 4
9 -1 23 -12 33 -18 17 -20 17 -26 1 -4 -9 0 -24 8 -34 21 -24 29 -72 11 -65
-8 3 -13 -2 -13 -14 0 -12 8 -19 20 -20 11 -1 20 4 20 13 0 18 29 18 36 0 3
-8 13 -12 26 -8 16 4 19 2 13 -8 -5 -8 -3 -11 5 -8 19 6 24 28 7 28 -8 0 -21
8 -28 18 -12 15 -12 16 2 4 17 -13 44 -12 69 3 11 6 10 3 -2 -12 -25 -28 -22
-33 13 -23 25 7 30 6 25 -5 -3 -8 -1 -15 4 -15 16 0 11 40 -5 46 -8 4 -13 10
-10 14 8 13 48 2 62 -16 10 -14 12 -13 10 11 -2 18 -10 31 -25 36 -12 5 -22 5
-22 1 0 -3 -7 4 -16 16 -8 12 -12 28 -8 35 6 9 5 9 -8 0 -17 -15 -29 -7 -21
13 3 8 10 11 17 7 6 -3 5 0 -2 8 -11 12 -16 11 -28 -6 -8 -11 -12 -25 -10 -31
5 -13 -23 -29 -32 -19 -3 3 0 5 6 5 7 0 12 5 12 11 0 5 -5 7 -12 3 -7 -4 -2 7
11 24 28 40 23 63 -6 25z m-50 -17 c4 -10 1 -13 -9 -9 -15 6 -19 23 -5 23 5 0
11 -7 14 -14z m117 -56 c0 -5 -5 -10 -11 -10 -5 0 -7 5 -4 10 3 6 8 10 11 10
2 0 4 -4 4 -10z m-5 -30 c3 -5 1 -10 -4 -10 -6 0 -11 5 -11 10 0 6 2 10 4 10
3 0 8 -4 11 -10z m-125 -21 c0 -6 -4 -7 -10 -4 -5 3 -10 11 -10 16 0 6 5 7 10
4 6 -3 10 -11 10 -16z"/>
<path d="M1843 500 c2 -8 0 -23 -5 -32 -6 -14 -5 -16 7 -12 18 7 19 23 4 44
-9 13 -10 13 -6 0z"/>
<path d="M1930 503 c0 -5 5 -15 10 -23 8 -12 10 -12 10 5 0 15 2 17 9 6 5 -8
11 -9 15 -3 3 5 -1 13 -10 16 -21 8 -34 8 -34 -1z"/>
<path d="M885 489 c-11 -17 1 -21 15 -4 8 9 8 15 2 15 -6 0 -14 -5 -17 -11z"/>
<path d="M975 489 c-10 -15 5 -140 16 -134 10 7 8 145 -3 145 -4 0 -10 -5 -13
-11z"/>
<path d="M1496 491 c-12 -5 -16 -10 -9 -14 13 -8 43 2 43 14 0 10 -8 10 -34 0z"/>
<path d="M1780 484 c0 -8 5 -12 10 -9 6 4 8 11 5 16 -9 14 -15 11 -15 -7z"/>
<path d="M2554 488 c-4 -5 -3 -12 0 -15 3 -4 6 -1 6 6 0 7 5 9 10 6 13 -8 13
-65 1 -65 -5 0 -12 8 -14 18 -4 14 -6 14 -12 -5 -4 -13 -12 -20 -17 -17 -5 3
-7 12 -4 19 2 7 -7 18 -22 25 -26 11 -26 11 -9 -8 15 -16 15 -21 4 -30 -8 -7
-18 -8 -22 -4 -5 4 -5 2 -1 -5 4 -7 12 -10 19 -7 7 2 22 -4 32 -16 24 -26 38
-26 30 1 -5 15 -3 20 6 17 14 -5 39 14 39 29 0 4 9 14 20 21 17 11 20 10 20
-7 0 -26 17 -36 23 -14 4 16 5 16 6 -1 1 -16 6 -17 38 -11 56 10 71 26 37 39
-12 4 -15 2 -10 -9 3 -8 1 -15 -4 -15 -6 0 -10 5 -10 11 0 6 -7 8 -17 5 -9 -4
-20 -2 -23 5 -4 6 -25 11 -46 11 -22 0 -33 3 -26 5 6 3 12 8 12 12 0 11 -60 9
-66 -1z"/>
<path d="M837 474 c3 -7 9 -14 14 -14 14 0 10 17 -5 23 -10 4 -13 1 -9 -9z"/>
<path d="M924 423 c7 -66 11 -81 21 -72 9 9 -8 139 -18 139 -6 0 -7 -25 -3
-67z"/>
<path d="M1425 480 c3 -5 8 -10 11 -10 2 0 4 5 4 10 0 6 -5 10 -11 10 -5 0 -7
-4 -4 -10z"/>
<path d="M1876 482 c-2 -4 -1 -14 4 -22 7 -11 9 -9 7 8 -1 24 -3 26 -11 14z"/>
<path d="M2505 480 c3 -5 8 -10 11 -10 2 0 4 5 4 10 0 6 -5 10 -11 10 -5 0 -7
-4 -4 -10z"/>
<path d="M3864 479 c-3 -5 6 -9 20 -9 31 0 34 6 6 13 -11 3 -23 1 -26 -4z"/>
<path d="M1376 461 c10 -10 21 -17 23 -15 6 6 -20 34 -32 34 -6 0 -2 -8 9 -19z"/>
<path d="M1545 470 c3 -5 8 -10 11 -10 2 0 4 5 4 10 0 6 -5 10 -11 10 -5 0 -7
-4 -4 -10z"/>
<path d="M1575 470 c-3 -5 -1 -10 4 -10 6 0 11 5 11 10 0 6 -2 10 -4 10 -3 0
-8 -4 -11 -10z"/>
<path d="M1730 470 c0 -5 7 -7 15 -4 8 4 15 8 15 10 0 2 -7 4 -15 4 -8 0 -15
-4 -15 -10z"/>
<path d="M2450 470 c0 -5 5 -10 10 -10 6 0 10 5 10 10 0 6 -4 10 -10 10 -5 0
-10 -4 -10 -10z"/>
<path d="M3052 471 c2 -7 7 -12 11 -12 12 1 9 15 -3 20 -7 2 -11 -2 -8 -8z"/>
<path d="M3092 460 c-15 -25 4 -38 24 -18 13 12 13 17 2 26 -11 8 -17 6 -26
-8z"/>
<path d="M3801 474 c-1 -7 10 -19 24 -28 21 -14 24 -14 19 -1 -4 8 -12 15 -19
15 -7 0 -16 6 -18 13 -4 7 -6 8 -6 1z"/>
<path d="M3985 470 c3 -5 8 -10 11 -10 2 0 4 5 4 10 0 6 -5 10 -11 10 -5 0 -7
-4 -4 -10z"/>
<path d="M111 456 c-7 -8 -23 -13 -36 -11 -30 3 -31 0 -5 -32 15 -20 20 -22
20 -9 0 10 4 14 10 11 6 -3 7 1 4 9 -9 23 13 19 26 -4 6 -11 15 -20 19 -20 14
0 23 32 11 44 -7 7 -10 6 -10 -3 0 -11 -3 -11 -15 -1 -8 7 -12 16 -9 21 8 14
-2 10 -15 -5z"/>
<path d="M736 458 c24 -11 22 -61 -2 -51 -8 3 -14 -1 -14 -10 0 -9 -8 -24 -17
-33 -20 -19 -22 -20 32 2 11 5 13 2 9 -11 -6 -14 -3 -16 14 -10 14 4 22 2 22
-5 0 -6 5 -8 10 -5 6 4 8 11 5 16 -4 5 -4 9 -1 9 3 0 10 -9 16 -20 9 -16 8
-19 -7 -13 -12 5 -15 2 -10 -10 4 -11 -3 -24 -21 -38 l-27 -21 25 7 c14 4 31
10 38 12 6 3 12 0 12 -6 0 -6 4 -11 10 -11 13 0 51 42 44 49 -3 3 -12 -3 -20
-13 -7 -11 -16 -17 -19 -15 -2 3 7 18 22 33 14 15 22 31 17 35 -6 3 -9 17 -9
31 1 27 -11 57 -31 77 -14 15 -28 17 -20 4 3 -5 -1 -12 -10 -15 -22 -9 -24 -8
-24 9 0 10 -10 15 -32 14 -30 0 -31 -1 -12 -11z m80 -43 c13 -13 13 -15 1 -15
-8 0 -17 7 -21 15 -3 8 -3 15 0 15 3 0 12 -7 20 -15z m19 -63 c-6 -7 -35 18
-35 31 0 5 9 2 20 -8 11 -10 18 -20 15 -23z"/>
<path d="M2174 455 c-6 -6 -7 -19 -3 -30 4 -11 8 -14 8 -7 1 7 6 10 11 7 6 -3
10 -1 10 4 0 6 -5 11 -12 11 -6 0 -4 6 6 13 14 10 15 14 4 14 -7 0 -19 -5 -24
-12z"/>
<path d="M873 438 c3 -13 9 -48 13 -78 4 -30 12 -58 18 -62 13 -9 -13 -30 -26
-22 -4 3 -8 1 -8 -5 0 -5 5 -13 10 -16 6 -3 10 -1 10 5 0 6 5 8 10 5 6 -4 8
-10 6 -14 -3 -4 -1 -13 3 -20 6 -9 10 -5 13 13 3 14 1 26 -4 26 -5 0 -7 3 -5
8 5 7 -8 116 -18 160 -3 12 -10 22 -16 22 -7 0 -9 -10 -6 -22z"/>
<path d="M1516 451 c-3 -5 1 -14 10 -21 12 -11 17 -11 27 -1 9 10 8 12 -8 9
-12 -2 -19 2 -17 10 2 14 -4 16 -12 3z"/>
<path d="M1620 450 c0 -5 5 -10 11 -10 5 0 7 5 4 10 -3 6 -8 10 -11 10 -2 0
-4 -4 -4 -10z"/>
<path d="M1906 444 c-5 -14 -4 -15 9 -4 17 14 19 20 6 20 -5 0 -12 -7 -15 -16z"/>
<path d="M1968 453 c7 -3 16 -2 19 1 4 3 -2 6 -13 5 -11 0 -14 -3 -6 -6z"/>
<path d="M2770 450 c0 -5 4 -10 9 -10 6 0 13 5 16 10 3 6 -1 10 -9 10 -9 0
-16 -4 -16 -10z"/>
<path d="M1660 439 c0 -5 5 -7 10 -4 6 3 10 8 10 11 0 2 -4 4 -10 4 -5 0 -10
-5 -10 -11z"/>
<path d="M1730 440 c0 -5 5 -10 11 -10 5 0 7 5 4 10 -3 6 -8 10 -11 10 -2 0
-4 -4 -4 -10z"/>
<path d="M2927 420 c3 -11 9 -20 15 -20 5 0 4 9 -2 20 -6 11 -12 20 -14 20 -2
0 -2 -9 1 -20z"/>
<path d="M3605 430 c-3 -5 -1 -10 4 -10 6 0 11 5 11 10 0 6 -2 10 -4 10 -3 0
-8 -4 -11 -10z"/>
<path d="M1386 421 c-4 -7 -5 -15 -2 -18 9 -9 19 4 14 18 -4 11 -6 11 -12 0z"/>
<path d="M1853 415 c0 -8 4 -12 9 -9 4 3 8 9 8 15 0 5 -4 9 -8 9 -5 0 -9 -7
-9 -15z"/>
<path d="M1958 423 c7 -3 16 -2 19 1 4 3 -2 6 -13 5 -11 0 -14 -3 -6 -6z"/>
<path d="M2280 420 c0 -5 4 -10 9 -10 6 0 13 5 16 10 3 6 -1 10 -9 10 -9 0
-16 -4 -16 -10z"/>
<path d="M2400 422 c0 -6 5 -14 10 -17 8 -5 8 -11 0 -20 -8 -9 -5 -14 12 -20
13 -4 31 -6 41 -5 16 1 21 -9 18 -40 -1 -12 0 -12 7 -2 5 7 8 23 7 35 -2 21
-11 24 -45 16 -9 -3 -16 4 -18 18 -3 23 -32 54 -32 35z"/>
<path d="M2610 421 c0 -10 29 -36 34 -30 1 2 -6 12 -16 22 -10 9 -18 13 -18 8z"/>
<path d="M2760 420 c0 -5 5 -10 10 -10 6 0 10 5 10 10 0 6 -4 10 -10 10 -5 0
-10 -4 -10 -10z"/>
<path d="M2890 423 c0 -12 44 -53 56 -53 5 0 0 7 -11 16 -11 8 -20 20 -20 26
0 6 -6 13 -12 16 -7 2 -13 0 -13 -5z"/>
<path d="M1645 410 c3 -5 8 -10 11 -10 2 0 4 5 4 10 0 6 -5 10 -11 10 -5 0 -7
-4 -4 -10z"/>
<path d="M1900 410 c0 -5 5 -10 11 -10 5 0 7 -5 3 -12 -4 -6 -3 -8 3 -5 6 4
19 -3 29 -15 17 -19 17 -21 2 -15 -15 5 -16 3 -6 -18 6 -14 15 -25 20 -25 5 0
7 -3 5 -7 -3 -5 6 -9 19 -9 20 -2 22 1 13 17 -5 10 -16 19 -24 19 -8 0 -15 5
-15 10 0 6 5 10 10 10 6 0 9 5 8 11 -2 6 3 14 10 16 6 3 12 0 12 -6 0 -6 7 -8
15 -5 8 4 15 1 15 -5 0 -6 -7 -11 -15 -11 -21 0 -19 -24 5 -45 18 -16 20 -16
20 -2 0 10 -5 17 -11 17 -5 0 -7 5 -4 10 4 7 11 7 18 2 8 -6 18 -2 29 9 14 15
14 20 3 29 -7 6 -17 10 -21 9 -5 -1 -12 0 -16 1 -14 4 -28 7 -40 9 -9 1 -8 4
2 11 8 5 10 10 4 10 -6 0 -17 -7 -24 -15 -16 -19 -30 -19 -30 1 0 8 -4 13 -9
9 -5 -3 -12 -1 -16 5 -8 13 -25 13 -25 0z m160 -50 c0 -5 -5 -10 -11 -10 -5 0
-7 5 -4 10 3 6 8 10 11 10 2 0 4 -4 4 -10z"/>
<path d="M2354 409 c-3 -6 -2 -15 4 -21 6 -6 12 -6 16 1 4 6 2 11 -4 11 -6 0
-8 5 -5 10 3 6 4 10 1 10 -3 0 -8 -5 -12 -11z"/>
<path d="M2710 410 c0 -5 5 -10 11 -10 5 0 7 5 4 10 -3 6 -8 10 -11 10 -2 0
-4 -4 -4 -10z"/>
<path d="M2850 410 c0 -5 5 -10 10 -10 6 0 10 5 10 10 0 6 -4 10 -10 10 -5 0
-10 -4 -10 -10z"/>
<path d="M2185 400 c-4 -6 -16 -8 -28 -4 -18 5 -17 2 8 -19 16 -15 26 -29 22
-33 -4 -4 -7 -3 -7 3 0 6 -9 13 -19 16 -15 3 -18 1 -14 -11 5 -12 2 -14 -11
-9 -12 5 -16 3 -13 -5 2 -7 18 -13 36 -13 23 -1 36 6 47 23 9 14 12 22 6 18
-5 -3 -15 1 -22 9 -10 12 -9 15 4 15 9 0 16 5 16 10 0 13 -17 13 -25 0z"/>
<path d="M1436 383 c-5 -11 1 -23 16 -34 12 -10 25 -15 28 -13 4 5 -9 15 -35
29 -6 3 -5 7 3 11 14 7 16 24 3 24 -5 0 -12 -8 -15 -17z"/>
<path d="M1575 386 c-11 -6 -21 -12 -23 -12 -1 -1 5 -15 15 -33 18 -30 33 -40
33 -21 0 6 -4 10 -10 10 -5 0 -10 11 -10 25 0 14 4 25 10 25 5 0 7 -6 4 -14
-6 -16 26 -78 44 -84 15 -5 16 28 1 48 -9 13 -10 12 -5 -2 8 -28 -8 -21 -21 8
-11 25 -11 26 12 22 16 -4 22 -1 18 9 -3 7 -13 13 -23 13 -10 0 -20 4 -22 9
-1 5 -12 3 -23 -3z"/>
<path d="M2320 392 c0 -12 19 -26 26 -19 2 2 -2 10 -11 17 -9 8 -15 8 -15 2z"/>
<path d="M2577 379 c-12 -13 -15 -25 -9 -31 12 -12 35 16 30 37 -2 13 -6 12
-21 -6z"/>
<path d="M1489 374 c-12 -16 -12 -17 4 -11 16 6 25 -7 10 -16 -5 -2 -3 -2 4
-1 6 2 14 -4 17 -12 3 -9 11 -12 17 -9 6 5 4 12 -8 21 -15 11 -15 15 -4 23 9
6 10 11 2 15 -6 4 -11 1 -11 -6 0 -11 -2 -11 -9 0 -6 10 -11 9 -22 -4z"/>
<path d="M1835 381 c-3 -5 -1 -12 5 -16 5 -3 10 1 10 9 0 18 -6 21 -15 7z"/>
<path d="M3530 379 c0 -6 -6 -9 -13 -6 -8 3 -14 -1 -14 -9 0 -7 4 -11 9 -8 5
4 15 -2 22 -12 11 -15 12 -13 8 14 -4 31 -12 44 -12 21z"/>
<path d="M300 370 c0 -5 9 -12 21 -15 11 -4 24 -16 28 -28 5 -12 10 -16 14
-10 4 6 0 18 -8 26 -8 9 -15 19 -15 24 0 5 -9 9 -20 10 -11 1 -20 -2 -20 -7z"/>
<path d="M2235 370 c-3 -5 -1 -10 4 -10 6 0 11 5 11 10 0 6 -2 10 -4 10 -3 0
-8 -4 -11 -10z"/>
<path d="M2297 359 c6 -6 9 -18 6 -25 -7 -18 7 -17 32 3 16 13 17 15 3 10 -12
-4 -18 -1 -18 8 0 8 -8 15 -17 15 -13 0 -14 -3 -6 -11z"/>
<path d="M1073 348 c-10 -16 -11 -78 -1 -78 5 0 8 9 8 21 0 11 5 29 10 39 12
22 -4 38 -17 18z"/>
<path d="M1377 349 c7 -7 15 -10 18 -7 3 3 -2 9 -12 12 -14 6 -15 5 -6 -5z"/>
<path d="M1685 350 c3 -5 8 -10 11 -10 2 0 4 5 4 10 0 6 -5 10 -11 10 -5 0 -7
-4 -4 -10z"/>
<path d="M1860 352 c0 -5 -13 -8 -30 -7 -24 1 -28 -1 -19 -12 6 -7 18 -13 25
-13 8 0 14 -8 14 -17 0 -11 -3 -14 -8 -8 -4 6 -14 10 -22 10 -8 0 -17 2 -20 6
-3 3 -14 3 -25 -1 -16 -7 -11 -10 28 -21 26 -7 47 -17 47 -22 0 -4 -9 -6 -19
-2 -16 5 -18 2 -14 -16 4 -16 3 -20 -6 -15 -6 4 -18 2 -26 -4 -12 -10 -15 -9
-15 8 0 12 -5 24 -12 28 -7 4 -8 3 -4 -4 4 -7 2 -20 -3 -29 -9 -16 -10 -15
-11 5 0 14 -5 22 -12 20 -12 -4 -14 -8 -39 -60 -13 -30 -29 -37 -29 -14 0 8
-5 18 -12 22 -8 5 -9 2 -5 -9 3 -10 2 -17 -3 -17 -6 0 -10 5 -10 11 0 6 -6 9
-14 6 -8 -3 -17 -3 -19 1 -2 4 -2 1 -1 -6 4 -16 -8 -15 -32 4 -10 8 -13 13 -6
9 19 -10 14 9 -5 21 -16 10 -18 6 -21 -31 -1 -28 3 -47 13 -55 9 -7 13 -21 10
-30 -4 -14 -1 -16 20 -12 27 5 33 17 13 26 -9 3 -8 8 5 16 9 6 17 17 17 25 0
9 6 12 17 8 11 -4 13 -8 5 -11 -10 -3 -10 -7 0 -20 11 -15 11 -15 -4 -4 -13
10 -18 10 -24 1 -4 -7 -2 -15 4 -17 7 -2 17 -13 23 -25 9 -20 9 -21 -4 -4 -14
17 -16 17 -29 -2 -8 -12 -19 -18 -24 -13 -5 4 0 -3 10 -15 22 -26 28 -29 20
-9 -3 8 -1 17 5 21 6 3 11 1 11 -5 0 -6 6 -10 13 -8 7 2 12 -1 12 -6 0 -5 14
-15 30 -22 23 -10 25 -13 10 -14 -16 0 -17 -2 -5 -10 10 -6 20 -3 33 11 10 10
23 19 30 18 9 0 9 -2 0 -6 -7 -2 -13 -9 -13 -14 0 -5 35 -6 83 -3 45 3 96 6
114 6 18 1 30 5 26 11 -3 5 -21 7 -39 5 -19 -2 -34 0 -34 4 0 4 5 8 10 8 6 0
10 4 10 10 0 5 -7 7 -15 4 -8 -4 -15 -12 -15 -20 0 -8 -5 -14 -11 -14 -6 0 -9
7 -5 15 3 9 0 15 -10 15 -9 0 -12 5 -8 12 4 7 3 8 -5 4 -6 -4 -20 -2 -29 5 -9
7 -14 9 -10 5 4 -5 0 -15 -10 -22 -24 -18 -62 -18 -62 1 0 8 -5 15 -11 15 -6
0 -9 -9 -6 -20 3 -12 0 -20 -7 -20 -15 0 -8 72 8 82 6 4 7 11 2 15 -5 4 -11 2
-13 -4 -7 -19 -23 -16 -23 5 1 29 36 62 67 62 49 0 73 4 73 12 0 4 5 8 10 8 6
0 10 -6 10 -14 0 -9 15 -14 48 -15 26 0 57 -3 69 -5 32 -7 65 5 59 20 -3 7 -1
16 4 19 17 10 12 48 -5 41 -8 -3 -15 0 -15 7 0 8 -4 6 -10 -3 -8 -12 -10 -12
-10 -1 0 10 -3 11 -14 2 -10 -8 -16 -9 -21 -1 -3 5 -2 10 4 10 13 0 3 28 -21
60 l-20 25 7 -28 c9 -35 -12 -37 -25 -2 -9 24 -20 33 -20 17z m41 -59 c13 -15
12 -15 -11 -3 -34 17 -36 20 -18 20 9 0 22 -7 29 -17z m-11 -57 l25 -14 -27 1
c-14 1 -24 5 -22 9 2 4 -6 9 -18 11 -20 4 -20 4 -3 5 11 1 31 -5 45 -12z
m-300 -76 c0 -5 -5 -10 -11 -10 -5 0 -7 5 -4 10 3 6 8 10 11 10 2 0 4 -4 4
-10z m80 -70 c0 -5 -2 -10 -4 -10 -3 0 -8 5 -11 10 -3 6 -1 10 4 10 6 0 11 -4
11 -10z m160 -50 c0 -5 -2 -10 -4 -10 -3 0 -8 5 -11 10 -3 6 -1 10 4 10 6 0
11 -4 11 -10z"/>
<path d="M2517 340 c4 -17 8 -18 14 -8 6 9 9 5 9 -13 0 -34 26 -46 34 -16 6
24 -8 41 -41 51 -18 6 -20 4 -16 -14z m53 -24 c0 -3 -4 -8 -10 -11 -5 -3 -10
-1 -10 4 0 6 5 11 10 11 6 0 10 -2 10 -4z"/>
<path d="M2206 324 c-14 -20 -20 -23 -27 -13 -6 10 -9 10 -9 2 0 -8 -7 -10
-17 -6 -16 6 -16 5 -3 -8 18 -18 73 -32 63 -16 -4 6 0 8 9 4 9 -3 21 0 27 6 9
9 14 9 20 -2 6 -9 11 -10 15 -2 4 6 3 11 -3 11 -6 0 -8 7 -5 15 4 9 0 15 -10
15 -9 0 -16 -7 -16 -15 0 -17 -25 -20 -35 -5 -3 6 1 13 9 16 9 3 16 10 16 15
0 16 -15 9 -34 -17z"/>
<path d="M3566 335 c4 -8 11 -15 16 -15 6 0 5 6 -2 15 -7 8 -14 15 -16 15 -2
0 -1 -7 2 -15z"/>
<path d="M3636 335 c-8 -22 4 -37 22 -26 9 6 9 11 -1 25 -13 18 -14 18 -21 1z"/>
<path d="M716 321 c-9 -10 -16 -21 -16 -26 0 -5 6 -1 13 9 10 13 20 16 37 11
17 -5 19 -9 9 -15 -7 -5 -17 -6 -21 -4 -4 3 -8 0 -8 -5 0 -15 21 -13 43 3 13
10 14 15 5 23 -26 20 -46 21 -62 4z"/>
<path d="M1660 320 c0 -11 5 -20 10 -20 6 0 10 9 10 20 0 11 -4 20 -10 20 -5
0 -10 -9 -10 -20z"/>
<path d="M2450 331 c0 -6 4 -13 10 -16 6 -3 7 1 4 9 -7 18 -14 21 -14 7z"/>
<path d="M3347 333 c-13 -13 -7 -22 11 -16 14 6 15 4 4 -9 -10 -13 -10 -19 3
-32 19 -19 31 -20 40 -5 4 6 0 9 -10 7 -10 -2 -20 3 -23 11 -3 9 0 11 7 6 8
-5 11 -1 9 11 -4 27 -27 42 -41 27z"/>
<path d="M3475 330 c-3 -5 1 -10 10 -10 9 0 13 5 10 10 -3 6 -8 10 -10 10 -2
0 -7 -4 -10 -10z"/>
<path d="M137 324 c7 -3 9 -12 6 -21 -4 -11 -2 -14 5 -9 18 11 14 36 -5 35
-10 0 -13 -3 -6 -5z"/>
<path d="M266 321 c-3 -5 2 -15 12 -22 15 -12 16 -12 5 2 -7 9 -10 19 -6 22 3
4 4 7 0 7 -3 0 -8 -4 -11 -9z"/>
<path d="M500 315 c0 -8 4 -15 9 -15 5 0 11 7 15 15 3 9 0 15 -9 15 -8 0 -15
-7 -15 -15z"/>
<path d="M960 320 c0 -5 5 -10 11 -10 5 0 7 5 4 10 -3 6 -8 10 -11 10 -2 0 -4
-4 -4 -10z"/>
<path d="M1705 320 c-3 -6 1 -7 9 -4 18 7 21 14 7 14 -6 0 -13 -4 -16 -10z"/>
<path d="M3310 320 c0 -5 -7 -10 -15 -10 -8 0 -15 -9 -15 -20 0 -17 2 -17 25
6 27 27 30 34 15 34 -5 0 -10 -4 -10 -10z"/>
<path d="M1100 310 c0 -5 5 -10 11 -10 5 0 7 5 4 10 -3 6 -8 10 -11 10 -2 0
-4 -4 -4 -10z"/>
<path d="M1200 312 c1 -4 15 -23 32 -42 17 -19 28 -27 24 -17 -3 10 -6 24 -6
30 0 7 -11 17 -25 24 -14 6 -25 8 -25 5z"/>
<path d="M2067 306 c-3 -8 -2 -18 4 -22 16 -9 22 2 11 21 -8 15 -10 16 -15 1z"/>
<path d="M2364 307 c1 -7 11 -28 23 -46 20 -33 21 -33 21 -7 0 15 -6 26 -14
26 -8 0 -14 9 -14 20 0 11 -4 20 -9 20 -5 0 -8 -6 -7 -13z"/>
<path d="M2393 304 c0 -7 9 -12 19 -11 10 1 18 4 18 8 0 4 -8 9 -18 11 -11 3
-19 0 -19 -8z"/>
<path d="M2981 311 c-8 -5 -9 -11 -3 -15 5 -3 12 1 16 9 6 17 6 18 -13 6z"/>
<path d="M3406 307 c2 -7 18 -18 34 -24 27 -10 29 -9 27 8 -2 10 -7 22 -12 26
-4 5 -5 2 -1 -4 5 -9 0 -13 -13 -13 -12 0 -21 5 -21 10 0 6 -4 10 -10 10 -5 0
-7 -6 -4 -13z"/>
<path d="M3980 311 c0 -6 4 -13 10 -16 6 -3 7 1 4 9 -7 18 -14 21 -14 7z"/>
<path d="M1327 290 c-3 -11 -1 -20 4 -20 5 0 9 9 9 20 0 11 -2 20 -4 20 -2 0
-6 -9 -9 -20z"/>
<path d="M2319 293 c-13 -17 -13 -17 6 -3 11 8 22 16 24 17 2 2 0 3 -6 3 -6 0
-17 -8 -24 -17z"/>
<path d="M2600 300 c0 -5 5 -10 11 -10 5 0 7 5 4 10 -3 6 -8 10 -11 10 -2 0
-4 -4 -4 -10z"/>
<path d="M3680 300 c0 -5 5 -10 11 -10 5 0 7 5 4 10 -3 6 -8 10 -11 10 -2 0
-4 -4 -4 -10z"/>
<path d="M3858 290 c-10 -11 -13 -22 -8 -25 6 -4 10 -2 10 3 0 5 12 7 28 5 25
-4 25 -3 10 10 -10 8 -15 17 -11 20 3 4 2 7 -3 6 -5 0 -17 -9 -26 -19z"/>
<path d="M213 292 c-7 -4 -9 -13 -4 -21 6 -9 10 -7 14 8 3 12 4 21 4 21 -1 0
-7 -4 -14 -8z"/>
<path d="M3736 285 c-11 -8 -15 -15 -9 -15 6 0 16 7 23 15 16 19 11 19 -14 0z"/>
<path d="M3790 281 c0 -10 -8 -25 -17 -32 -14 -12 -16 -12 -9 0 6 9 4 12 -5 9
-8 -3 -17 -23 -20 -46 -4 -34 -2 -41 13 -45 14 -4 18 -15 18 -47 0 -33 3 -41
15 -36 17 6 21 -19 5 -29 -6 -4 -8 -16 -4 -27 4 -14 2 -18 -5 -14 -6 4 -11 14
-11 22 0 25 -15 15 -16 -11 -2 -20 3 -25 20 -25 12 0 28 6 34 12 10 10 15 10
20 1 4 -7 37 -11 80 -12 59 0 73 2 69 13 -3 8 0 17 8 20 15 6 19 152 4 162 -9
5 -13 -9 -10 -31 1 -5 -6 -1 -14 10 -9 11 -22 19 -30 17 -7 -1 -16 2 -19 7 -4
6 -18 6 -37 1 -26 -8 -30 -6 -27 8 5 23 -32 42 -52 28 -13 -10 -13 -9 -1 6 7
10 17 15 22 12 13 -8 7 18 -8 33 -16 18 -23 16 -23 -6z m40 -61 c0 -5 -4 -10
-10 -10 -5 0 -10 -10 -10 -22 0 -12 -3 -19 -6 -15 -9 9 5 57 16 57 6 0 10 -4
10 -10z m-60 -24 c0 -3 -4 -8 -10 -11 -5 -3 -10 -1 -10 4 0 6 5 11 10 11 6 0
10 -2 10 -4z m167 -26 c6 0 17 -7 24 -17 13 -15 12 -15 -10 -4 -19 11 -25 11
-32 0 -5 -8 -9 -12 -10 -9 0 3 -2 19 -4 35 -3 27 -2 28 9 13 7 -10 18 -18 23
-18z m-56 -3 c-10 -9 -11 -8 -5 6 3 10 9 15 12 12 3 -3 0 -11 -7 -18z m-51
-27 c0 -5 -2 -10 -4 -10 -3 0 -8 5 -11 10 -3 6 -1 10 4 10 6 0 11 -4 11 -10z
m53 -7 c-7 -2 -19 -2 -25 0 -7 3 -2 5 12 5 14 0 19 -2 13 -5z m72 -3 c3 -6 -4
-10 -17 -10 -18 0 -20 2 -8 10 19 12 18 12 25 0z m35 -4 c0 -3 -4 -8 -10 -11
-5 -3 -10 -1 -10 4 0 6 5 11 10 11 6 0 10 -2 10 -4z m-33 -56 c-4 -28 -24 -46
-24 -23 0 16 14 43 23 43 2 0 2 -9 1 -20z m-130 -32 c-3 -7 -5 -2 -5 12 0 14
2 19 5 13 2 -7 2 -19 0 -25z"/>
<path d="M1180 281 c0 -5 5 -13 10 -16 6 -3 10 -2 10 4 0 5 -4 13 -10 16 -5 3
-10 2 -10 -4z"/>
<path d="M1675 275 c-3 -11 -10 -27 -14 -35 -5 -10 -2 -21 7 -30 14 -13 15
-12 9 3 -4 10 0 20 9 25 11 6 12 14 5 33 -8 23 -9 23 -16 4z"/>
<path d="M2129 281 c12 -8 13 -12 2 -25 -11 -12 -17 -14 -27 -5 -13 10 -18 6
-15 -13 0 -4 -6 -5 -14 -2 -19 8 -19 3 2 -40 9 -19 21 -33 26 -29 5 3 4 8 -2
13 -17 10 -2 40 20 40 12 0 19 7 19 20 0 11 5 20 10 20 6 0 10 -4 10 -10 0 -5
5 -10 10 -10 20 0 9 27 -15 38 -31 14 -46 15 -26 3z"/>
<path d="M2445 280 c-3 -5 -1 -10 4 -10 6 0 11 5 11 10 0 6 -2 10 -4 10 -3 0
-8 -4 -11 -10z"/>
<path d="M3310 286 c0 -2 7 -7 16 -10 8 -3 12 -2 9 4 -6 10 -25 14 -25 6z"/>
<path d="M2245 267 c-4 -10 -5 -21 -1 -24 10 -10 18 4 13 24 -4 17 -4 17 -12
0z"/>
<path d="M2331 225 c-1 -47 -5 -64 -21 -78 -11 -9 -20 -12 -20 -7 0 6 -4 10
-10 10 -5 0 -10 -8 -10 -17 0 -15 -2 -16 -10 -3 -9 13 -11 13 -20 0 -6 -10 -6
-16 0 -18 17 -6 11 -23 -6 -20 -9 2 -20 -6 -24 -18 -8 -20 -6 -21 33 -17 23 3
52 14 65 26 18 16 22 17 22 5 0 -9 9 -18 20 -21 11 -3 20 -1 20 4 0 5 -7 9
-16 9 -10 0 -14 7 -12 18 2 9 10 16 17 14 10 -2 12 5 7 23 -4 17 -3 24 4 20 5
-3 10 -13 10 -21 0 -9 5 -12 12 -8 8 5 9 1 5 -12 -6 -16 -4 -16 12 3 16 19 20
20 25 7 3 -8 2 -13 -3 -9 -5 3 -11 -1 -14 -7 -6 -19 4 -49 14 -42 5 3 7 10 4
15 -4 5 1 9 9 9 15 0 21 12 17 34 -1 4 3 14 10 22 6 7 7 19 3 26 -6 11 -5 11
8 0 17 -13 14 -37 -8 -81 -15 -28 -10 -41 7 -24 6 6 19 9 28 6 13 -4 13 -2 -1
7 -22 13 -23 30 -3 30 21 0 13 52 -14 85 -18 24 -25 25 -23 4 2 -13 -44 -3
-50 11 -5 12 -7 12 -7 -2 -1 -26 -21 -22 -21 3 0 15 -5 19 -15 15 -11 -4 -15
2 -15 22 0 19 -3 23 -9 13 -7 -11 -10 -10 -14 5 -2 10 -5 -8 -6 -41z m119 -53
c0 -11 -8 -18 -20 -19 -22 -2 -28 22 -7 30 22 9 27 7 27 -11z m-124 -46 c-2
-18 -26 -46 -38 -46 -5 0 0 14 12 30 24 33 29 37 26 16z"/>
<path d="M2493 268 c7 -20 -9 -25 -16 -5 -4 9 -6 9 -6 -1 -1 -8 7 -24 17 -37
l19 -24 -1 34 c-1 19 -6 38 -10 42 -5 4 -6 0 -3 -9z"/>
<path d="M3443 252 c15 -15 18 -15 33 -1 14 14 12 16 -17 17 -30 1 -31 0 -16
-16z"/>
<path d="M40 250 c0 -5 5 -10 11 -10 5 0 7 5 4 10 -3 6 -8 10 -11 10 -2 0 -4
-4 -4 -10z"/>
<path d="M971 244 c0 -11 3 -14 6 -6 3 7 2 16 -1 19 -3 4 -6 -2 -5 -13z"/>
<path d="M1160 251 c0 -5 5 -13 10 -16 6 -3 10 -2 10 4 0 5 -4 13 -10 16 -5 3
-10 2 -10 -4z"/>
<path d="M1273 240 c-1 -10 5 -21 13 -24 16 -6 19 -37 3 -33 -6 1 -14 -4 -16
-10 -3 -7 2 -13 10 -13 17 0 27 21 27 58 0 21 -2 24 -10 12 -9 -14 -11 -13
-14 9 -2 19 -12 20 -13 1z"/>
<path d="M2039 253 c-1 -5 -1 -12 0 -16 1 -4 -5 -10 -13 -13 -12 -5 -13 -9 -3
-25 19 -30 28 -22 25 21 -2 36 -6 52 -9 33z"/>
<path d="M1209 243 c-1 -4 -1 -11 0 -15 0 -5 -6 -8 -14 -8 -8 0 -15 -4 -15 -9
0 -4 14 -7 32 -5 17 2 37 -1 45 -7 14 -13 17 -1 5 19 -5 8 -16 10 -27 6 -12
-5 -16 -4 -11 4 3 6 2 13 -4 17 -5 3 -11 3 -11 -2z"/>
<path d="M1384 239 c-3 -6 2 -18 11 -27 17 -16 17 -16 12 1 -7 20 6 23 21 4
11 -13 -2 -47 -13 -35 -12 12 -43 -24 -38 -43 3 -10 9 -16 14 -14 4 3 12 -3
18 -12 5 -10 13 -14 17 -10 5 5 3 12 -4 16 -7 4 -10 15 -6 24 7 18 -11 24 -19
7 -3 -6 -4 -5 -3 2 2 7 9 13 17 13 8 0 18 5 22 10 5 6 6 2 3 -8 -4 -12 -2 -17
6 -14 7 2 11 11 9 18 -2 8 -4 19 -5 25 -1 7 -7 18 -14 26 -6 8 -9 18 -5 21 3
4 -3 7 -15 7 -11 0 -24 -5 -28 -11z"/>
<path d="M2200 239 c0 -5 4 -8 9 -5 5 3 11 -5 13 -19 4 -18 1 -25 -11 -25 -14
0 -14 -2 -1 -10 10 -6 16 -6 18 0 2 6 8 8 13 5 5 -4 6 2 3 12 -4 14 -1 12 15
-6 12 -13 21 -20 21 -16 0 4 7 2 15 -5 12 -10 16 -9 21 5 8 20 -14 37 -38 29
-10 -3 -18 -1 -18 4 0 14 27 22 48 15 15 -6 15 -5 3 10 -13 16 -16 16 -46 -3
l-33 -20 -5 20 c-5 21 -27 28 -27 9z"/>
<path d="M2590 245 c0 -4 7 -13 15 -21 8 -9 15 -12 15 -9 0 4 9 -3 21 -16 l21
-24 -15 23 c-15 24 -57 58 -57 47z"/>
<path d="M3485 239 c-4 -6 -5 -12 -2 -15 2 -3 7 2 10 11 7 17 1 20 -8 4z"/>
<path d="M3020 224 c0 -8 5 -12 10 -9 6 4 8 11 5 16 -9 14 -15 11 -15 -7z"/>
<path d="M3673 218 c3 -32 17 -50 17 -22 0 16 2 17 10 4 9 -13 11 -13 20 0 12
19 12 27 0 35 -5 3 -10 1 -10 -4 0 -15 -27 -14 -34 2 -3 6 -4 0 -3 -15z"/>
<path d="M3945 230 c-3 -5 -1 -10 4 -10 6 0 11 5 11 10 0 6 -2 10 -4 10 -3 0
-8 -4 -11 -10z"/>
<path d="M435 220 c-3 -5 -1 -10 4 -10 6 0 11 5 11 10 0 6 -2 10 -4 10 -3 0
-8 -4 -11 -10z"/>
<path d="M1060 216 c0 -9 5 -16 10 -16 6 0 10 4 10 9 0 6 -4 13 -10 16 -5 3
-10 -1 -10 -9z"/>
<path d="M2704 209 c0 -10 4 -19 8 -19 4 0 8 6 8 14 0 8 -4 17 -8 20 -4 2 -8
-4 -8 -15z"/>
<path d="M2950 215 c7 -9 15 -13 17 -11 7 7 -7 26 -19 26 -6 0 -6 -6 2 -15z"/>
<path d="M20 215 c0 -18 19 -40 26 -32 4 4 0 15 -9 24 -9 10 -17 13 -17 8z"/>
<path d="M2580 213 c0 -7 -7 -13 -15 -13 -9 0 -12 -6 -9 -15 5 -11 2 -13 -10
-9 -21 8 -20 -5 2 -23 11 -8 12 -12 3 -11 -7 2 -16 -3 -18 -9 -3 -7 0 -13 6
-13 7 0 7 -8 1 -25 -11 -28 -12 -27 53 -25 27 1 55 -4 64 -12 9 -7 14 -8 10
-2 -9 16 35 27 48 12 7 -8 6 -9 -2 -4 -7 4 -13 2 -13 -3 0 -6 4 -11 9 -11 16
0 23 20 12 34 -7 9 -6 18 4 32 13 19 12 20 -18 16 -25 -3 -29 -1 -17 7 8 6 25
11 38 11 15 0 22 6 22 19 0 11 -4 23 -10 26 -6 4 -7 -1 -3 -11 4 -12 3 -15 -5
-10 -7 4 -12 2 -12 -5 0 -7 -8 -5 -20 6 -24 22 -39 13 -19 -11 13 -15 10 -15
-21 1 -19 10 -38 23 -42 29 -5 7 -8 6 -8 -4 -1 -9 -6 -5 -15 10 -8 14 -14 19
-15 13z m1 -56 c-10 -9 -11 -8 -5 6 3 10 9 15 12 12 3 -3 0 -11 -7 -18z m27
-32 c-17 -14 -48 -24 -48 -15 0 5 7 10 15 10 8 0 15 5 15 11 0 5 5 7 11 4 6
-4 9 -8 7 -10z m32 5 c0 -5 -4 -10 -10 -10 -5 0 -10 5 -10 10 0 6 5 10 10 10
6 0 10 -4 10 -10z"/>
<path d="M3620 198 c0 -17 3 -19 9 -9 5 7 14 10 20 7 6 -4 11 -3 11 2 0 8 -22
22 -36 22 -2 0 -4 -10 -4 -22z"/>
<path d="M860 202 c0 -5 -11 -22 -26 -38 -19 -22 -24 -36 -20 -62 6 -38 -6
-35 -24 8 -15 35 -26 38 -33 8 -5 -19 -8 -20 -24 -7 -10 7 -15 10 -11 5 4 -5
3 -16 -2 -25 -10 -19 -2 -35 20 -44 10 -4 8 -6 -7 -6 -13 -1 -23 4 -23 10 0 5
-4 8 -9 5 -5 -3 -7 -14 -5 -24 4 -13 16 -17 57 -16 72 1 77 2 77 21 0 9 3 13
7 9 4 -4 8 -15 8 -24 0 -15 12 -17 82 -17 52 0 78 4 72 10 -14 14 -11 35 5 35
8 0 16 6 19 14 3 7 0 13 -6 13 -36 -1 -49 4 -44 17 3 8 -1 20 -8 26 -8 7 -12
16 -9 21 3 5 -2 6 -10 3 -16 -6 -20 3 -16 44 1 12 -4 22 -10 22 -6 0 -9 -4 -5
-9 10 -17 -18 -24 -30 -8 -13 18 -25 22 -25 9z m35 -39 c15 -12 16 -14 3 -10
-20 7 -29 -12 -21 -45 6 -20 4 -21 -9 -11 -19 17 -30 5 -17 -18 5 -11 6 -19 1
-19 -14 0 -21 35 -10 54 5 9 8 22 5 29 -3 11 12 36 23 36 3 0 14 -7 25 -16z
m-68 -45 c-3 -8 -6 -5 -6 6 -1 11 2 17 5 13 3 -3 4 -12 1 -19z m-33 -60 c3
-20 0 -27 -15 -31 -16 -4 -18 -3 -8 9 6 7 9 20 6 28 -3 8 -3 17 0 20 9 8 11 4
17 -26z"/>
<path d="M2110 206 c0 -2 19 -13 41 -24 23 -12 37 -16 31 -10 -6 6 -8 16 -6
22 2 7 -10 12 -31 13 -19 2 -35 1 -35 -1z"/>
<path d="M2876 197 c2 -7 13 -18 24 -25 19 -11 19 -11 8 8 -14 22 -40 36 -32
17z"/>
<path d="M410 189 c0 -5 5 -7 10 -4 6 3 10 8 10 11 0 2 -4 4 -10 4 -5 0 -10
-5 -10 -11z"/>
<path d="M480 182 c0 -10 -5 -23 -12 -30 -9 -9 -8 -12 5 -12 10 0 17 8 17 20
0 10 8 24 18 29 15 9 15 10 -5 11 -16 0 -23 -6 -23 -18z"/>
<path d="M825 190 c3 -5 8 -10 11 -10 2 0 4 5 4 10 0 6 -5 10 -11 10 -5 0 -7
-4 -4 -10z"/>
<path d="M1367 193 c-4 -3 -7 -11 -7 -17 0 -6 5 -5 12 2 6 6 9 14 7 17 -3 3
-9 2 -12 -2z"/>
<path d="M2850 192 c0 -7 4 -12 9 -12 6 0 8 -9 6 -19 -3 -14 1 -18 11 -14 19
7 18 17 -6 38 -11 10 -20 13 -20 7z"/>
<path d="M2993 183 c0 -9 4 -10 14 -2 7 6 13 12 13 14 0 1 -6 2 -13 2 -8 0
-14 -6 -14 -14z"/>
<path d="M3285 190 c3 -5 11 -10 16 -10 6 0 7 5 4 10 -3 6 -11 10 -16 10 -6 0
-7 -4 -4 -10z"/>
<path d="M700 180 c0 -6 7 -10 15 -10 8 0 15 2 15 4 0 2 -7 6 -15 10 -8 3 -15
1 -15 -4z"/>
<path d="M2061 174 c0 -11 3 -14 6 -6 3 7 2 16 -1 19 -3 4 -6 -2 -5 -13z"/>
<path d="M2930 173 c8 -18 8 -23 -2 -23 -9 0 -9 -3 2 -10 8 -5 11 -13 6 -17
-4 -4 -14 0 -21 11 -17 22 -35 13 -28 -14 3 -11 10 -17 15 -14 6 4 14 1 18 -6
5 -8 17 -15 28 -17 16 -2 19 2 15 20 -4 22 -4 22 12 2 9 -12 11 -21 5 -23 -6
-2 -1 -16 11 -33 21 -30 40 -31 38 -1 0 11 -3 12 -6 5 -2 -7 -9 -13 -14 -13
-14 0 -11 28 4 33 8 3 6 9 -8 20 -17 13 -18 19 -8 36 12 19 11 20 -12 11 -14
-5 -25 -6 -25 -2 0 4 -10 18 -21 32 -18 23 -19 23 -9 3z"/>
<path d="M3021 176 c-10 -12 -8 -13 8 -9 12 3 18 9 15 14 -7 12 -10 11 -23 -5z"/>
<path d="M3500 181 c0 -6 4 -13 10 -16 6 -3 7 1 4 9 -7 18 -14 21 -14 7z"/>
<path d="M935 170 c-3 -5 -1 -10 4 -10 6 0 11 5 11 10 0 6 -2 10 -4 10 -3 0
-8 -4 -11 -10z"/>
<path d="M982 160 c-9 -15 -9 -25 0 -45 6 -14 15 -25 19 -25 11 0 -1 33 -15
42 -6 4 -5 12 4 22 7 9 11 18 9 21 -3 2 -10 -5 -17 -15z"/>
<path d="M2780 156 c8 -21 7 -24 -7 -19 -11 4 -14 3 -9 -5 4 -7 16 -12 27 -12
10 0 19 -4 19 -10 0 -5 6 -10 14 -10 7 0 21 -10 29 -23 l16 -22 0 23 c1 12 -3
22 -9 22 -5 0 -10 7 -10 15 0 8 -6 12 -14 9 -9 -3 -17 3 -21 15 -3 12 -15 26
-26 31 -17 10 -18 8 -9 -14z"/>
<path d="M42 162 c-7 -5 -10 -16 -6 -26 7 -18 -15 -19 -28 -1 -4 6 -8 2 -8 -9
0 -12 5 -16 14 -13 8 3 20 -1 26 -9 12 -13 7 -19 -14 -15 -9 2 -26 -18 -26
-31 0 -5 5 -8 11 -8 5 0 7 5 4 10 -3 6 -1 10 5 10 6 0 10 -11 8 -25 -2 -13 2
-24 7 -24 6 -1 10 13 11 29 0 27 14 58 14 32 0 -7 3 -11 8 -9 4 1 8 -1 10 -5
6 -20 45 -50 51 -40 4 7 12 8 21 2 23 -15 40 -12 34 5 -4 8 -2 15 4 15 6 0 12
-5 14 -12 3 -8 39 -13 114 -16 201 -5 232 -4 259 14 15 10 25 12 25 5 0 -6 5
-11 10 -11 7 0 7 6 1 19 -8 13 -20 18 -41 17 -24 -2 -32 3 -42 25 -11 24 -13
25 -27 11 -15 -14 -16 -14 -19 8 -3 18 -6 20 -13 9 -6 -10 -9 -10 -9 -1 0 6
-7 12 -16 12 -10 0 -14 -6 -11 -15 4 -8 2 -17 -3 -20 -6 -4 -10 2 -10 12 0 15
-2 16 -11 3 -8 -11 -9 -9 -3 10 4 14 9 31 11 38 8 18 -5 15 -30 -9 -12 -12
-16 -19 -9 -15 15 9 16 -20 0 -30 -7 -5 -8 -3 -3 7 8 12 6 12 -8 0 -9 -7 -17
-22 -17 -32 0 -20 -4 -24 -44 -33 -27 -7 -28 -6 -15 10 12 15 11 16 -21 9 -31
-7 -33 -6 -21 9 11 13 11 17 -3 22 -12 5 -14 10 -6 19 8 9 8 15 0 20 -5 3 -10
-1 -10 -10 0 -12 -6 -15 -22 -11 -13 3 -18 3 -12 1 18 -9 4 -55 -17 -55 -11 0
-19 5 -19 11 0 6 8 8 18 5 16 -6 16 -5 0 7 -10 8 -17 16 -15 18 1 2 -4 -2 -10
-10 -7 -8 -13 -19 -13 -25 0 -5 -2 -7 -5 -4 -3 3 -1 17 4 31 9 22 7 28 -9 37
-18 10 -36 -1 -23 -14 9 -8 10 -56 2 -56 -4 0 -9 7 -13 15 -3 8 -12 15 -19 15
-9 0 -14 10 -14 25 0 14 3 25 8 25 5 0 9 7 9 15 0 16 -18 19 -38 7z m192 -83
c-3 -5 -10 -7 -15 -3 -5 3 -7 10 -3 15 3 5 10 7 15 3 5 -3 7 -10 3 -15z m252
-17 c-6 -5 -36 23 -36 34 0 4 9 -1 20 -11 11 -10 18 -20 16 -23z"/>
<path d="M785 160 c3 -5 10 -10 16 -10 5 0 9 5 9 10 0 6 -7 10 -16 10 -8 0
-12 -4 -9 -10z"/>
<path d="M505 150 c-3 -5 -1 -10 4 -10 6 0 11 5 11 10 0 6 -2 10 -4 10 -3 0
-8 -4 -11 -10z"/>
<path d="M1970 150 c0 -5 5 -10 10 -10 6 0 10 5 10 10 0 6 -4 10 -10 10 -5 0
-10 -4 -10 -10z"/>
<path d="M2827 149 c7 -7 15 -10 18 -7 3 3 -2 9 -12 12 -14 6 -15 5 -6 -5z"/>
<path d="M3025 149 c-11 -17 1 -21 15 -4 8 9 8 15 2 15 -6 0 -14 -5 -17 -11z"/>
<path d="M3360 156 c0 -2 7 -7 16 -10 8 -3 12 -2 9 4 -6 10 -25 14 -25 6z"/>
<path d="M420 140 c0 -5 7 -7 15 -4 8 4 15 8 15 10 0 2 -7 4 -15 4 -8 0 -15
-4 -15 -10z"/>
<path d="M1807 137 c-3 -8 1 -14 8 -14 7 0 11 6 8 14 -3 7 -6 13 -8 13 -2 0
-5 -6 -8 -13z"/>
<path d="M2027 136 c-5 -13 24 -30 46 -27 4 1 7 -7 7 -16 0 -12 3 -14 10 -7
14 14 2 44 -16 37 -7 -3 -17 2 -20 11 -8 20 -20 21 -27 2z"/>
<path d="M321 132 c4 -22 -2 -42 -10 -37 -5 3 -12 1 -15 -4 -12 -19 25 -4 39
16 13 18 13 22 0 27 -8 3 -14 2 -14 -2z"/>
<path d="M701 124 c0 -11 3 -14 6 -6 3 7 2 16 -1 19 -3 4 -6 -2 -5 -13z"/>
<path d="M1516 124 c-4 -9 1 -14 14 -14 23 0 27 15 6 23 -8 3 -17 -1 -20 -9z"/>
<path d="M3050 129 c0 -5 5 -7 10 -4 6 3 10 8 10 11 0 2 -4 4 -10 4 -5 0 -10
-5 -10 -11z"/>
<path d="M3460 131 c0 -6 4 -13 10 -16 6 -3 7 1 4 9 -7 18 -14 21 -14 7z"/>
<path d="M1971 114 c0 -11 3 -14 6 -6 3 7 2 16 -1 19 -3 4 -6 -2 -5 -13z"/>
<path d="M3530 114 c0 -7 6 -19 14 -27 15 -14 11 -61 -4 -52 -5 3 -6 14 -3 24
3 10 0 22 -6 25 -6 4 -11 0 -11 -9 0 -9 -5 -13 -11 -10 -6 4 -8 13 -5 21 3 8
1 14 -4 14 -6 0 -10 -9 -10 -21 0 -11 -4 -17 -10 -14 -6 4 -17 1 -25 -5 -8 -6
-20 -8 -26 -4 -7 4 -9 3 -5 -4 3 -6 2 -13 -4 -17 -22 -14 -8 -23 21 -15 25 7
30 6 25 -5 -6 -17 12 -19 48 -5 16 6 26 6 26 0 0 -5 28 -9 62 -9 l62 1 -29 16
c-47 24 -60 52 -24 52 14 0 19 5 16 14 -3 8 -1 17 6 19 7 2 -1 4 -18 3 -16 -1
-36 -5 -44 -10 -10 -6 -12 -4 -7 12 6 17 3 21 -14 19 -11 -1 -20 -7 -20 -13z
m70 -24 c0 -5 -5 -10 -11 -10 -5 0 -7 5 -4 10 3 6 8 10 11 10 2 0 4 -4 4 -10z"/>
<path d="M3742 110 c0 -14 2 -19 5 -12 2 6 2 18 0 25 -3 6 -5 1 -5 -13z"/>
<path d="M256 112 c-3 -6 -1 -14 5 -17 14 -9 20 -2 10 14 -6 8 -11 9 -15 3z"/>
<path d="M546 104 c-9 -22 -8 -23 14 -21 23 2 25 10 6 26 -11 9 -15 8 -20 -5z"/>
<path d="M588 113 c7 -3 16 -2 19 1 4 3 -2 6 -13 5 -11 0 -14 -3 -6 -6z"/>
<path d="M1190 111 c0 -6 4 -13 10 -16 6 -3 7 1 4 9 -7 18 -14 21 -14 7z"/>
<path d="M2165 98 c-12 -40 -12 -56 1 -51 6 2 12 20 12 39 0 40 -3 43 -13 12z"/>
<path d="M2726 104 c-3 -8 -2 -13 3 -10 4 3 21 -8 37 -24 16 -16 34 -30 40
-30 6 0 17 -7 24 -15 11 -13 10 -14 -5 -9 -13 5 -16 4 -11 -4 10 -17 45 -15
63 3 13 14 18 14 32 2 23 -20 92 -21 84 -2 -6 18 -23 20 -23 3 0 -9 -4 -8 -10
2 -7 11 -10 11 -10 2 0 -7 -5 -10 -11 -6 -8 4 -7 9 2 15 7 4 17 5 23 2 5 -4 7
1 3 11 -4 10 -7 20 -7 23 0 3 -7 0 -15 -7 -13 -10 -19 -10 -35 5 -14 13 -20
14 -20 5 0 -7 8 -18 17 -25 15 -11 14 -12 -10 -10 -34 4 -57 22 -57 44 0 12
-2 13 -9 3 -7 -11 -11 -11 -24 2 -8 9 -21 16 -29 16 -7 0 -2 -7 10 -16 12 -8
22 -20 22 -25 0 -15 -48 24 -53 44 -6 21 -23 22 -31 1z"/>
<path d="M3162 108 c-7 -7 -12 -17 -12 -22 -1 -11 -35 -56 -42 -56 -3 0 -3 14
0 30 2 17 10 30 19 30 8 0 11 5 8 11 -5 7 -13 5 -25 -6 -15 -14 -18 -14 -30 0
-21 25 -33 17 -15 -11 9 -15 13 -24 7 -20 -5 3 -12 -1 -16 -9 -3 -8 -1 -17 4
-20 6 -4 10 -12 10 -18 0 -8 -3 -8 -9 2 -6 9 -11 10 -15 2 -9 -13 -10 -13 37
-15 20 -2 37 1 37 6 0 5 4 7 9 4 5 -3 11 1 14 8 3 8 2 17 -4 20 -5 2 -4 3 3 2
7 -1 18 13 25 33 14 39 12 46 -5 29z"/>
<path d="M1050 100 c0 -5 5 -10 10 -10 6 0 10 5 10 10 0 6 -4 10 -10 10 -5 0
-10 -4 -10 -10z"/>
<path d="M1467 99 c7 -7 15 -10 18 -7 3 3 -2 9 -12 12 -14 6 -15 5 -6 -5z"/>
<path d="M1705 100 c-3 -5 -1 -10 4 -10 6 0 11 5 11 10 0 6 -2 10 -4 10 -3 0
-8 -4 -11 -10z"/>
<path d="M3407 88 c20 -22 22 -22 20 0 0 10 -9 18 -19 18 -16 0 -16 -2 -1 -18z"/>
<path d="M1740 91 c0 -5 5 -13 10 -16 6 -3 10 -2 10 4 0 5 -4 13 -10 16 -5 3
-10 2 -10 -4z"/>
<path d="M3209 83 c-13 -16 -12 -17 4 -4 9 7 17 15 17 17 0 8 -8 3 -21 -13z"/>
<path d="M3315 86 c-18 -13 -18 -14 9 -9 22 5 27 3 21 -7 -5 -9 -4 -11 4 -6 9
6 9 11 0 22 -14 17 -11 17 -34 0z"/>
<path d="M3707 93 c-12 -12 -7 -22 8 -17 8 4 15 10 15 15 0 11 -14 12 -23 2z"/>
<path d="M1300 71 c0 -6 -8 -11 -18 -11 -15 0 -18 -6 -14 -30 3 -19 10 -30 21
-30 12 0 13 2 3 8 -10 7 -8 14 8 35 12 15 16 28 10 32 -5 3 -10 1 -10 -4z"/>
<path d="M1510 76 c0 -2 7 -9 15 -16 9 -7 15 -8 15 -2 0 5 -7 12 -15 16 -8 3
-15 4 -15 2z"/>
<path d="M3670 70 c0 -5 5 -10 10 -10 6 0 10 5 10 10 0 6 -4 10 -10 10 -5 0
-10 -4 -10 -10z"/>
<path d="M3730 63 c-13 -15 -12 -16 4 -10 10 4 20 7 22 7 2 0 4 5 4 10 0 15
-13 12 -30 -7z"/>
<path d="M620 65 c0 -19 15 -33 43 -40 17 -5 27 -3 27 4 0 6 -4 11 -9 11 -5 0
-17 7 -25 16 -12 12 -16 12 -16 2 0 -10 -3 -9 -10 2 -5 8 -10 11 -10 5z"/>
<path d="M1331 58 c0 -10 -7 -18 -15 -18 -9 0 -12 -7 -9 -20 5 -17 14 -20 69
-20 51 0 64 3 64 16 0 8 5 12 10 9 6 -4 8 -11 5 -16 -4 -5 -1 -9 6 -9 6 0 9 8
6 20 -3 11 -2 20 3 20 4 0 10 7 13 14 4 10 1 13 -9 9 -7 -3 -14 -9 -14 -14 0
-14 -28 -11 -34 4 -3 6 -3 2 -1 -9 4 -14 0 -24 -10 -28 -14 -5 -18 2 -16 34 0
8 -6 2 -13 -14 -12 -27 -30 -23 -23 6 2 7 2 10 0 6 -8 -14 -21 -9 -26 10 -4
16 -5 16 -6 0z m19 -38 c0 -5 -7 -10 -16 -10 -8 0 -12 5 -9 10 3 6 10 10 16
10 5 0 9 -4 9 -10z"/>
<path d="M3178 62 c9 -7 8 -13 -8 -27 -11 -10 -20 -23 -20 -29 0 -6 12 2 25
17 25 28 25 47 2 47 -9 0 -8 -3 1 -8z"/>
<path d="M1071 51 c-1 -9 -9 -11 -24 -8 -12 4 -28 2 -36 -2 -10 -7 -8 -12 10
-24 12 -9 27 -13 33 -9 6 3 23 5 38 3 16 -1 28 2 28 9 0 7 -8 9 -19 5 -15 -4
-21 0 -24 17 -2 13 -5 17 -6 9z"/>
<path d="M2110 50 c-12 -8 -11 -10 8 -10 12 0 22 5 22 10 0 13 -11 13 -30 0z"/>
<path d="M1203 27 c2 -24 14 -28 55 -18 1 1 -3 7 -10 15 -7 8 -17 12 -22 9 -4
-3 -12 0 -16 7 -5 8 -8 4 -7 -13z"/>
<path d="M2030 39 c0 -5 5 -7 10 -4 6 3 10 8 10 11 0 2 -4 4 -10 4 -5 0 -10
-5 -10 -11z"/>
<path d="M60 32 c0 -5 7 -13 16 -16 22 -8 24 -8 24 6 0 6 -3 8 -7 5 -3 -4 -12
-2 -20 4 -8 7 -13 8 -13 1z"/>
<path d="M1510 22 c0 -6 -7 -9 -15 -6 -8 4 -15 2 -15 -2 0 -5 16 -10 36 -11
20 -1 35 -1 33 0 -2 2 -12 9 -21 16 -12 9 -18 9 -18 3z"/>
<path d="M3358 23 c7 -3 16 -2 19 1 4 3 -2 6 -13 5 -11 0 -14 -3 -6 -6z"/>
<path d="M2658 3 c6 -2 18 -2 25 0 6 3 1 5 -13 5 -14 0 -19 -2 -12 -5z"/>
<path d="M3698 3 c7 -3 16 -2 19 1 4 3 -2 6 -13 5 -11 0 -14 -3 -6 -6z"/>
</g>
</svg>
